<svg xmlns="http://www.w3.org/2000/svg" xmlns:xlink="http://www.w3.org/1999/xlink" xmlns:lucid="lucid" width="3982" height="1742"><g transform="translate(2621 101)" lucid:page-tab-id="0_0"><path d="M-3000-500h4500v2500h-4500z" fill="#fff"/><path d="M-1000-34a6 6 0 0 1 6-6h588a6 6 0 0 1 6 6v213a6 6 0 0 1-6 6h-588a6 6 0 0 1-6-6z" stroke="#3a414a" stroke-width="2" fill="#fff"/><path d="M-1000 2.9h600m-600 64.38h600" stroke="#3a414a" stroke-width="2" fill="none"/><use xlink:href="#a" transform="matrix(1,0,0,1,-992,-32) translate(204.26671006944446 21.58376736111111)"/><use xlink:href="#b" transform="matrix(1,0,0,1,-988,75.27604166666669) translate(0 32.69574652777777)"/><use xlink:href="#c" transform="matrix(1,0,0,1,-988,75.27604166666669) translate(0 59.58376736111111)"/><use xlink:href="#d" transform="matrix(1,0,0,1,-988,75.27604166666669) translate(0 86.47178819444443)"/><path d="M-940 366a6 6 0 0 1 6-6h482.16a6 6 0 0 1 6 6v240a6 6 0 0 1-6 6H-934a6 6 0 0 1-6-6z" stroke="#3a414a" stroke-width="2" fill="#fff"/><path d="M-940 429.78h494.16M-940 494.16h494.16" stroke="#3a414a" stroke-width="2" fill="none"/><use xlink:href="#e" transform="matrix(1,0,0,1,-932,368) translate(119.40451388888889 21.639756944444443)"/><use xlink:href="#f" transform="matrix(1,0,0,1,-932,368) translate(213.05685763888889 21.639756944444443)"/><use xlink:href="#g" transform="matrix(1,0,0,1,-932,368) translate(212.43836805555554 48.52777777777778)"/><use xlink:href="#h" transform="matrix(1,0,0,1,-928,502.1640625) translate(0 32.69574652777777)"/><use xlink:href="#i" transform="matrix(1,0,0,1,-928,502.1640625) translate(155.19748263888889 32.69574652777777)"/><use xlink:href="#j" transform="matrix(1,0,0,1,-928,502.1640625) translate(167.84939236111111 32.69574652777777)"/><use xlink:href="#k" transform="matrix(1,0,0,1,-928,502.1640625) translate(0 59.58376736111111)"/><use xlink:href="#i" transform="matrix(1,0,0,1,-928,502.1640625) translate(153.34201388888889 59.58376736111111)"/><use xlink:href="#j" transform="matrix(1,0,0,1,-928,502.1640625) translate(165.99392361111111 59.58376736111111)"/><use xlink:href="#d" transform="matrix(1,0,0,1,-928,502.1640625) translate(0 86.47178819444443)"/><path d="M-692.92 216.38V358.5" stroke="#3a414a" fill="none"/><path d="M-692.92 186.7l-14.85 14.86 14.85 14.85 14.85-14.84z" stroke="#3a414a" fill="#fff"/><path d="M-692.45 359h-.94v-.5h.95z" stroke="#3a414a" stroke-width=".05" fill="#3a414a"/><path d="M-1980 1115.5a6 6 0 0 1 6-6h482.16a6 6 0 0 1 6 6v117a6 6 0 0 1-6 6H-1974a6 6 0 0 1-6-6z" stroke="#3a414a" stroke-width="2" fill="#fff"/><path d="M-1980 1152.4h494.16m-494.16 42.88h494.16" stroke="#3a414a" stroke-width="2" fill="none"/><use xlink:href="#l" transform="matrix(1,0,0,1,-1972,1117.5000583060646) translate(217.08246527777777 21.58376736111111)"/><use xlink:href="#m" transform="matrix(1,0,0,1,-1968,1203.2760999727311) translate(0 21.58376736111111)"/><path d="M-1340 1115.5a6 6 0 0 1 6-6h482.16a6 6 0 0 1 6 6v117a6 6 0 0 1-6 6H-1334a6 6 0 0 1-6-6z" stroke="#3a414a" stroke-width="2" fill="#fff"/><path d="M-1340 1152.4h494.16m-494.16 42.88h494.16" stroke="#3a414a" stroke-width="2" fill="none"/><use xlink:href="#n" transform="matrix(1,0,0,1,-1332,1117.5000583060646) translate(213.13823784722223 21.58376736111111)"/><use xlink:href="#m" transform="matrix(1,0,0,1,-1328,1203.2760999727311) translate(0 21.58376736111111)"/><path d="M-700 1113a6 6 0 0 1 6-6h482.16a6 6 0 0 1 6 6v117a6 6 0 0 1-6 6H-694a6 6 0 0 1-6-6z" stroke="#3a414a" stroke-width="2" fill="#fff"/><path d="M-700 1149.9h494.16M-700 1192.77h494.16" stroke="#3a414a" stroke-width="2" fill="none"/><use xlink:href="#o" transform="matrix(1,0,0,1,-691.9999999999999,1115.0000499999999) translate(183.39105902777777 21.58376736111111)"/><use xlink:href="#p" transform="matrix(1,0,0,1,-691.9999999999999,1115.0000499999999) translate(234.47612847222223 21.58376736111111)"/><use xlink:href="#m" transform="matrix(1,0,0,1,-687.9999999999999,1200.7760916666664) translate(0 21.58376736111111)"/><path d="M-60 1115.5a6 6 0 0 1 6-6h482.16a6 6 0 0 1 6 6v117a6 6 0 0 1-6 6H-54a6 6 0 0 1-6-6z" stroke="#3a414a" stroke-width="2" fill="#fff"/><path d="M-60 1152.4h494.16M-60 1195.27h494.16" stroke="#3a414a" stroke-width="2" fill="none"/><use xlink:href="#q" transform="matrix(1,0,0,1,-51.999999999999886,1117.5000583060646) translate(179.44683159722223 21.58376736111111)"/><use xlink:href="#p" transform="matrix(1,0,0,1,-51.999999999999886,1117.5000583060646) translate(238.42035590277777 21.58376736111111)"/><use xlink:href="#m" transform="matrix(1,0,0,1,-47.999999999999886,1203.2760999727311) translate(0 21.58376736111111)"/><path d="M260-71.38a6 6 0 0 1 6-6h482.16a6 6 0 0 1 6 6v197a6 6 0 0 1-6 6H266a6 6 0 0 1-6-6z" stroke="#3a414a" stroke-width="2" fill="#fff"/><path d="M260-34.5h494.16M260 8.4h494.16" stroke="#3a414a" stroke-width="2" fill="none"/><use xlink:href="#r" transform="matrix(1,0,0,1,268,-69.3767627380222) translate(173.01236979166669 21.58376736111111)"/><use xlink:href="#s" transform="matrix(1,0,0,1,268,-69.3767627380222) translate(251.365234375 21.58376736111111)"/><use xlink:href="#t" transform="matrix(1,0,0,1,272,16.399278928644478) translate(0 21.751736111111114)"/><use xlink:href="#u" transform="matrix(1,0,0,1,272,16.399278928644478) translate(0 48.63975694444445)"/><use xlink:href="#v" transform="matrix(1,0,0,1,272,16.399278928644478) translate(0 75.52777777777779)"/><use xlink:href="#w" transform="matrix(1,0,0,1,272,16.399278928644478) translate(0 102.41579861111111)"/><use xlink:href="#x" transform="matrix(1,0,0,1,272,16.399278928644478) translate(99.43576388888889 102.41579861111111)"/><use xlink:href="#y" transform="matrix(1,0,0,1,272,16.399278928644478) translate(119.17317708333333 102.41579861111111)"/><use xlink:href="#z" transform="matrix(1,0,0,1,272,16.399278928644478) translate(131.82508680555554 102.41579861111111)"/><path d="M260 246a6 6 0 0 1 6-6h482.16a6 6 0 0 1 6 6v144a6 6 0 0 1-6 6H266a6 6 0 0 1-6-6z" stroke="#3a414a" stroke-width="2" fill="#fff"/><path d="M260 309.78h494.16M260 352.66h494.16" stroke="#3a414a" stroke-width="2" fill="none"/><use xlink:href="#A" transform="matrix(1,0,0,1,268,248) translate(163.24131944444443 21.639756944444443)"/><use xlink:href="#B" transform="matrix(1,0,0,1,268,248) translate(219.95789930555554 48.52777777777778)"/><use xlink:href="#C" transform="matrix(1,0,0,1,272,360.6640625) translate(0 21.58376736111111)"/><use xlink:href="#D" transform="matrix(1,0,0,1,272,360.6640625) translate(98.98003472222223 21.58376736111111)"/><path d="M-1980 1314h428.96l65.2 65.2V1640H-1980z" stroke="#3a414a" stroke-width="2" fill="#fcfcca"/><path d="M-1551.04 1314.96v64.24h64.25" stroke="#3a414a" stroke-width="2" fill="#fcfcca"/><use xlink:href="#E" transform="matrix(1,0,0,1,-1975,1319.00390625) translate(0 56.09027777777778)"/><use xlink:href="#F" transform="matrix(1,0,0,1,-1975,1319.00390625) translate(36.01 82.97829861111111)"/><use xlink:href="#G" transform="matrix(1,0,0,1,-1975,1319.00390625) translate(240.05730902777782 82.97829861111111)"/><use xlink:href="#H" transform="matrix(1,0,0,1,-1975,1319.00390625) translate(267.9001909722223 82.97829861111111)"/><use xlink:href="#I" transform="matrix(1,0,0,1,-1975,1319.00390625) translate(36.01 109.86631944444446)"/><use xlink:href="#J" transform="matrix(1,0,0,1,-1975,1319.00390625) translate(72.01 109.86631944444446)"/><use xlink:href="#I" transform="matrix(1,0,0,1,-1975,1319.00390625) translate(36.01 136.75434027777777)"/><use xlink:href="#K" transform="matrix(1,0,0,1,-1975,1319.00390625) translate(72.01 136.75434027777777)"/><use xlink:href="#L" transform="matrix(1,0,0,1,-1975,1319.00390625) translate(209.5425520833333 136.75434027777777)"/><use xlink:href="#I" transform="matrix(1,0,0,1,-1975,1319.00390625) translate(36.01 163.64236111111111)"/><use xlink:href="#M" transform="matrix(1,0,0,1,-1975,1319.00390625) translate(72.01 163.64236111111111)"/><use xlink:href="#N" transform="matrix(1,0,0,1,-1975,1319.00390625) translate(36.01 190.53038194444446)"/><use xlink:href="#O" transform="matrix(1,0,0,1,-1975,1319.00390625) translate(51.73265625 190.53038194444446)"/><use xlink:href="#H" transform="matrix(1,0,0,1,-1975,1319.00390625) translate(101.00565972222222 190.53038194444446)"/><use xlink:href="#I" transform="matrix(1,0,0,1,-1975,1319.00390625) translate(36.01 217.4184027777778)"/><use xlink:href="#P" transform="matrix(1,0,0,1,-1975,1319.00390625) translate(72.01 217.4184027777778)"/><use xlink:href="#I" transform="matrix(1,0,0,1,-1975,1319.00390625) translate(36.01 244.30642361111114)"/><use xlink:href="#Q" transform="matrix(1,0,0,1,-1975,1319.00390625) translate(72.01 244.30642361111114)"/><use xlink:href="#R" transform="matrix(1,0,0,1,-1975,1319.00390625) translate(141.4652951388889 244.30642361111114)"/><use xlink:href="#S" transform="matrix(1,0,0,1,-1975,1319.00390625) translate(191.5846527777778 244.30642361111114)"/><use xlink:href="#T" transform="matrix(1,0,0,1,-1975,1319.00390625) translate(36.01 271.1944444444445)"/><a xlink:href="http://return.this;" target="_blank" transform="matrix(1,0,0,1,-1975,1319.00390625)"><path class="lucid-link lucid-hotspot lucid-overlay-hotspot" fill-opacity="0" d="M72 142.1h113.84V169H72z"/></a><path d="M-1732.92 1312.5v-56.62" stroke="#3a414a" fill="none"/><path d="M-1732.44 1313h-.95v-.5h.96z" stroke="#3a414a" stroke-width=".05" fill="#3a414a"/><path d="M-1732.92 1241.12l4.63 14.26h-9.26z" stroke="#3a414a" fill="#3a414a"/><path d="M-1340 1314h428.96l65.2 65.2V1640H-1340z" stroke="#3a414a" stroke-width="2" fill="#fcfcca"/><path d="M-911.04 1314.96v64.24h64.25" stroke="#3a414a" stroke-width="2" fill="#fcfcca"/><use xlink:href="#E" transform="matrix(1,0,0,1,-1335,1319.00390625) translate(0 56.09027777777778)"/><use xlink:href="#F" transform="matrix(1,0,0,1,-1335,1319.00390625) translate(36.01 82.97829861111111)"/><use xlink:href="#G" transform="matrix(1,0,0,1,-1335,1319.00390625) translate(240.05730902777782 82.97829861111111)"/><use xlink:href="#H" transform="matrix(1,0,0,1,-1335,1319.00390625) translate(267.9001909722223 82.97829861111111)"/><use xlink:href="#I" transform="matrix(1,0,0,1,-1335,1319.00390625) translate(36.01 109.86631944444446)"/><use xlink:href="#J" transform="matrix(1,0,0,1,-1335,1319.00390625) translate(72.01 109.86631944444446)"/><use xlink:href="#I" transform="matrix(1,0,0,1,-1335,1319.00390625) translate(36.01 136.75434027777777)"/><use xlink:href="#K" transform="matrix(1,0,0,1,-1335,1319.00390625) translate(72.01 136.75434027777777)"/><use xlink:href="#L" transform="matrix(1,0,0,1,-1335,1319.00390625) translate(209.5425520833333 136.75434027777777)"/><use xlink:href="#I" transform="matrix(1,0,0,1,-1335,1319.00390625) translate(36.01 163.64236111111111)"/><use xlink:href="#M" transform="matrix(1,0,0,1,-1335,1319.00390625) translate(72.01 163.64236111111111)"/><use xlink:href="#N" transform="matrix(1,0,0,1,-1335,1319.00390625) translate(36.01 190.53038194444446)"/><use xlink:href="#O" transform="matrix(1,0,0,1,-1335,1319.00390625) translate(51.73265625 190.53038194444446)"/><use xlink:href="#H" transform="matrix(1,0,0,1,-1335,1319.00390625) translate(101.00565972222222 190.53038194444446)"/><use xlink:href="#I" transform="matrix(1,0,0,1,-1335,1319.00390625) translate(36.01 217.4184027777778)"/><use xlink:href="#U" transform="matrix(1,0,0,1,-1335,1319.00390625) translate(72.01 217.4184027777778)"/><use xlink:href="#I" transform="matrix(1,0,0,1,-1335,1319.00390625) translate(36.01 244.30642361111114)"/><use xlink:href="#Q" transform="matrix(1,0,0,1,-1335,1319.00390625) translate(72.01 244.30642361111114)"/><use xlink:href="#R" transform="matrix(1,0,0,1,-1335,1319.00390625) translate(141.4652951388889 244.30642361111114)"/><use xlink:href="#V" transform="matrix(1,0,0,1,-1335,1319.00390625) translate(191.5846527777778 244.30642361111114)"/><use xlink:href="#T" transform="matrix(1,0,0,1,-1335,1319.00390625) translate(36.01 271.1944444444445)"/><a xlink:href="http://return.this;" target="_blank" transform="matrix(1,0,0,1,-1335,1319.00390625)"><path class="lucid-link lucid-hotspot lucid-overlay-hotspot" fill-opacity="0" d="M72 142.1h113.84V169H72z"/></a><path d="M-1092.92 1312.5v-56.62" stroke="#3a414a" fill="none"/><path d="M-1092.44 1313h-.95v-.5h.96z" stroke="#3a414a" stroke-width=".05" fill="#3a414a"/><path d="M-1092.92 1241.12l4.63 14.26h-9.26z" stroke="#3a414a" fill="#3a414a"/><path d="M-700 1314h428.96l65.2 65.2V1640H-700z" stroke="#3a414a" stroke-width="2" fill="#fcfcca"/><path d="M-271.04 1314.96v64.24h64.25" stroke="#3a414a" stroke-width="2" fill="#fcfcca"/><use xlink:href="#E" transform="matrix(1,0,0,1,-695,1319.00390625) translate(0 46.21527777777778)"/><use xlink:href="#F" transform="matrix(1,0,0,1,-695,1319.00390625) translate(36.01 73.10329861111111)"/><use xlink:href="#G" transform="matrix(1,0,0,1,-695,1319.00390625) translate(240.05730902777782 73.10329861111111)"/><use xlink:href="#H" transform="matrix(1,0,0,1,-695,1319.00390625) translate(267.9001909722223 73.10329861111111)"/><use xlink:href="#I" transform="matrix(1,0,0,1,-695,1319.00390625) translate(36.01 99.99131944444446)"/><use xlink:href="#J" transform="matrix(1,0,0,1,-695,1319.00390625) translate(72.01 99.99131944444446)"/><use xlink:href="#I" transform="matrix(1,0,0,1,-695,1319.00390625) translate(36.01 126.87934027777777)"/><use xlink:href="#P" transform="matrix(1,0,0,1,-695,1319.00390625) translate(72.01 126.87934027777777)"/><use xlink:href="#I" transform="matrix(1,0,0,1,-695,1319.00390625) translate(36.01 153.76736111111111)"/><use xlink:href="#K" transform="matrix(1,0,0,1,-695,1319.00390625) translate(72.01 153.76736111111111)"/><use xlink:href="#L" transform="matrix(1,0,0,1,-695,1319.00390625) translate(209.5425520833333 153.76736111111111)"/><use xlink:href="#I" transform="matrix(1,0,0,1,-695,1319.00390625) translate(36.01 180.65538194444446)"/><use xlink:href="#M" transform="matrix(1,0,0,1,-695,1319.00390625) translate(72.01 180.65538194444446)"/><use xlink:href="#N" transform="matrix(1,0,0,1,-695,1319.00390625) translate(36.01 207.5434027777778)"/><use xlink:href="#O" transform="matrix(1,0,0,1,-695,1319.00390625) translate(51.73265625 207.5434027777778)"/><use xlink:href="#H" transform="matrix(1,0,0,1,-695,1319.00390625) translate(101.00565972222222 207.5434027777778)"/><use xlink:href="#I" transform="matrix(1,0,0,1,-695,1319.00390625) translate(36.01 234.43142361111114)"/><use xlink:href="#W" transform="matrix(1,0,0,1,-695,1319.00390625) translate(72.01 234.43142361111114)"/><use xlink:href="#I" transform="matrix(1,0,0,1,-695,1319.00390625) translate(36.01 261.3194444444445)"/><use xlink:href="#Q" transform="matrix(1,0,0,1,-695,1319.00390625) translate(72.01 261.3194444444445)"/><use xlink:href="#R" transform="matrix(1,0,0,1,-695,1319.00390625) translate(141.4652951388889 261.3194444444445)"/><use xlink:href="#X" transform="matrix(1,0,0,1,-695,1319.00390625) translate(191.5846527777778 261.3194444444445)"/><use xlink:href="#T" transform="matrix(1,0,0,1,-695,1319.00390625) translate(36.01 288.2074652777778)"/><g transform="matrix(1,0,0,1,-695,1319.00390625)"><a xlink:href="http://return.this;" target="_blank"><path class="lucid-link lucid-hotspot lucid-overlay-hotspot" fill-opacity="0" d="M72 159.13h113.84v26.9H72z"/></a></g><path d="M-452.92 1312.5V1253.38" stroke="#3a414a" fill="none"/><path d="M-452.44 1313h-.95v-.5h.95z" stroke="#3a414a" stroke-width=".05" fill="#3a414a"/><path d="M-452.92 1238.62l4.63 14.27-9.25-.02z" stroke="#3a414a" fill="#3a414a"/><path d="M-60 1300.56h426.27l67.9 67.9V1640H-60z" stroke="#3a414a" stroke-width="2" fill="#fcfcca"/><path d="M366.27 1301.5v66.95h66.94" stroke="#3a414a" stroke-width="2" fill="#fcfcca"/><g><use xlink:href="#E" transform="matrix(1,0,0,1,-54.999999999999886,1305.5598958333333) translate(0 52.46527777777778)"/><use xlink:href="#F" transform="matrix(1,0,0,1,-54.999999999999886,1305.5598958333333) translate(36.01 79.35329861111111)"/><use xlink:href="#G" transform="matrix(1,0,0,1,-54.999999999999886,1305.5598958333333) translate(240.05730902777782 79.35329861111111)"/><use xlink:href="#H" transform="matrix(1,0,0,1,-54.999999999999886,1305.5598958333333) translate(267.9001909722223 79.35329861111111)"/><use xlink:href="#I" transform="matrix(1,0,0,1,-54.999999999999886,1305.5598958333333) translate(36.01 106.24131944444446)"/><use xlink:href="#J" transform="matrix(1,0,0,1,-54.999999999999886,1305.5598958333333) translate(72.01 106.24131944444446)"/><use xlink:href="#I" transform="matrix(1,0,0,1,-54.999999999999886,1305.5598958333333) translate(36.01 133.12934027777777)"/><use xlink:href="#U" transform="matrix(1,0,0,1,-54.999999999999886,1305.5598958333333) translate(72.01 133.12934027777777)"/><use xlink:href="#I" transform="matrix(1,0,0,1,-54.999999999999886,1305.5598958333333) translate(36.01 160.01736111111111)"/><use xlink:href="#K" transform="matrix(1,0,0,1,-54.999999999999886,1305.5598958333333) translate(72.01 160.01736111111111)"/><use xlink:href="#L" transform="matrix(1,0,0,1,-54.999999999999886,1305.5598958333333) translate(209.5425520833333 160.01736111111111)"/><use xlink:href="#I" transform="matrix(1,0,0,1,-54.999999999999886,1305.5598958333333) translate(36.01 186.90538194444446)"/><use xlink:href="#M" transform="matrix(1,0,0,1,-54.999999999999886,1305.5598958333333) translate(72.01 186.90538194444446)"/><use xlink:href="#N" transform="matrix(1,0,0,1,-54.999999999999886,1305.5598958333333) translate(36.01 213.7934027777778)"/><use xlink:href="#O" transform="matrix(1,0,0,1,-54.999999999999886,1305.5598958333333) translate(51.73265625 213.7934027777778)"/><use xlink:href="#H" transform="matrix(1,0,0,1,-54.999999999999886,1305.5598958333333) translate(101.00565972222222 213.7934027777778)"/><use xlink:href="#I" transform="matrix(1,0,0,1,-54.999999999999886,1305.5598958333333) translate(36.01 240.68142361111114)"/><use xlink:href="#W" transform="matrix(1,0,0,1,-54.999999999999886,1305.5598958333333) translate(72.01 240.68142361111114)"/><use xlink:href="#I" transform="matrix(1,0,0,1,-54.999999999999886,1305.5598958333333) translate(36.01 267.5694444444445)"/><use xlink:href="#Q" transform="matrix(1,0,0,1,-54.999999999999886,1305.5598958333333) translate(72.01 267.5694444444445)"/><use xlink:href="#R" transform="matrix(1,0,0,1,-54.999999999999886,1305.5598958333333) translate(141.4652951388889 267.5694444444445)"/><use xlink:href="#X" transform="matrix(1,0,0,1,-54.999999999999886,1305.5598958333333) translate(191.5846527777778 267.5694444444445)"/><use xlink:href="#T" transform="matrix(1,0,0,1,-54.999999999999886,1305.5598958333333) translate(36.01 294.4574652777778)"/></g><g transform="matrix(1,0,0,1,-54.999999999999886,1305.5598958333333)"><a xlink:href="http://return.this;" target="_blank"><path class="lucid-link lucid-hotspot lucid-overlay-hotspot" fill-opacity="0" d="M72 165.38h113.84v26.9H72z"/></a></g><path d="M187.08 1299.06v-43.18" stroke="#3a414a" fill="none"/><path d="M187.56 1299.56h-.96v-.5h.96z" stroke="#3a414a" stroke-width=".05" fill="#3a414a"/><path d="M187.08 1241.12l4.63 14.26h-9.25z" stroke="#3a414a" fill="#3a414a"/><path d="M-720 266.37a6 6 0 0 1 6-6h148a6 6 0 0 1 6 6v32.26a6 6 0 0 1-6 6h-148a6 6 0 0 1-6-6z" fill="none"/><g><use xlink:href="#Y" transform="matrix(1,0,0,1,-720,260.365928822427) translate(54.202473958333336 30.58376736111111)"/></g><path d="M187.08 1108V866.75a6 6 0 0 0-6-6h-868a6 6 0 0 1-6-6v-21.67" stroke="#3a414a" fill="none"/><path d="M187.56 1108.5h-.96v-.5h.96z" stroke="#3a414a" stroke-width=".05" fill="#3a414a"/><path d="M-692.92 833.1v-.52M-1092.92 1108V861.25" stroke="#3a414a" fill="none"/><path d="M-1092.44 1108.5h-.95v-.5h.96z" stroke="#3a414a" stroke-width=".05" fill="#3a414a"/><path d="M-1092.92 861.26v-.5M-452.92 1105.5V861.25" stroke="#3a414a" fill="none"/><path d="M-452.44 1106h-.95v-.5h.95z" stroke="#3a414a" stroke-width=".05" fill="#3a414a"/><path d="M-452.92 861.26v-.5" stroke="#3a414a" fill="none"/><path d="M-2620 1115.5a6 6 0 0 1 6-6h482.16a6 6 0 0 1 6 6v117a6 6 0 0 1-6 6H-2614a6 6 0 0 1-6-6z" stroke="#3a414a" stroke-width="2" fill="#fff"/><path d="M-2620 1152.4h494.16m-494.16 42.88h494.16" stroke="#3a414a" stroke-width="2" fill="none"/><g><use xlink:href="#Z" transform="matrix(1,0,0,1,-2612,1117.5000583060646) translate(223.21310763888889 21.58376736111111)"/></g><path d="M-2372.92 1108V866.75a6 6 0 0 1 6-6h1668a6 6 0 0 0 6-6v-218.6" stroke="#3a414a" fill="none"/><path d="M-2372.45 1108.5h-.95v-.5h.95z" stroke="#3a414a" stroke-width=".05" fill="#3a414a"/><path d="M-692.92 614l12.5 21.65h-25z" stroke="#3a414a" fill="#fff"/><path d="M-1732.92 1108V861.25" stroke="#3a414a" fill="none"/><path d="M-1732.44 1108.5h-.95v-.5h.96z" stroke="#3a414a" stroke-width=".05" fill="#3a414a"/><path d="M-1732.92 861.26v-.5" stroke="#3a414a" fill="none"/><path d="M260 510.38a6 6 0 0 1 6-6h482.16a6 6 0 0 1 6 6v144a6 6 0 0 1-6 6H266a6 6 0 0 1-6-6z" stroke="#3a414a" stroke-width="2" fill="#fff"/><path d="M260 547.26h494.16M260 590.16h494.16" stroke="#3a414a" stroke-width="2" fill="none"/><g><use xlink:href="#aa" transform="matrix(1,0,0,1,268,512.3767627380222) translate(209.24283854166669 21.58376736111111)"/></g><g><use xlink:href="#ab" transform="matrix(1,0,0,1,272,598.1528044046889) translate(0 21.639756944444443)"/><use xlink:href="#ac" transform="matrix(1,0,0,1,272,598.1528044046889) translate(0 48.52777777777778)"/></g><path d="M258.5 318H-64a6 6 0 0 1-6-6V104.14a6 6 0 0 0-6-6h-322.5" stroke="#3a414a" fill="none"/><path d="M259 318.48h-.5v-.96h.5zM-398.5 98.62h-.5v-.95h.5z" stroke="#3a414a" stroke-width=".05" fill="#3a414a"/><path d="M258.5 27.12h-657" stroke="#3a414a" fill="none"/><path d="M259 27.6h-.5v-.95h.5zM-398.5 27.6h-.5v-.95h.5z" stroke="#3a414a" stroke-width=".05" fill="#3a414a"/><path d="M1040 146a6 6 0 0 1 6-6h148a6 6 0 0 1 6 6v148a6 6 0 0 1-6 6h-148a6 6 0 0 1-6-6z" stroke="#3a414a" stroke-width="2" fill="#fff"/><g><use xlink:href="#ad" transform="matrix(1,0,0,1,1045,145) translate(3.0002170138888857 68.40277777777777)"/><use xlink:href="#ae" transform="matrix(1,0,0,1,1045,145) translate(17.2580295138889 95.29079861111111)"/></g><path d="M1040 350.38a6 6 0 0 1 6-6h148a6 6 0 0 1 6 6v148a6 6 0 0 1-6 6h-148a6 6 0 0 1-6-6z" stroke="#3a414a" stroke-width="2" fill="#fff"/><g><use xlink:href="#ad" transform="matrix(1,0,0,1,1045,349.3767627380222) translate(3.0002170138888857 68.40277777777777)"/><use xlink:href="#af" transform="matrix(1,0,0,1,1045,349.3767627380222) translate(18.1857638888889 95.29079861111111)"/></g><path d="M785.53 318h105.55a6 6 0 0 0 6-6v-86a6 6 0 0 1 6-6h135.42" stroke="#3a414a" fill="none"/><path d="M755.87 318l14.85 14.85L785.57 318l-14.85-14.85z" stroke="#3a414a" fill="#fff"/><path d="M1039 220.47h-.5v-.94h.5z" stroke="#3a414a" stroke-width=".05" fill="#3a414a"/><path d="M1038.5 424.38H903.08a6 6 0 0 1-6-6V324a6 6 0 0 0-6-6H785.53" stroke="#3a414a" fill="none"/><path d="M1039 424.85h-.5v-.95h.5z" stroke="#3a414a" stroke-width=".05" fill="#3a414a"/><path d="M755.87 318l14.85 14.85L785.57 318l-14.85-14.85z" stroke="#3a414a" fill="#fff"/><path d="M752.3 239.82l4.17-2.83m4.16-2.84l8.33-5.66m4.16-2.83l8.33-5.66m4.16-2.82l8.34-5.66m4.16-2.83l8.32-5.66m4.17-2.83l8.3-5.65m4.17-2.83l8.33-5.66m4.16-2.83l8.33-5.66m4.15-2.83l8.33-5.66m4.16-2.83l8.32-5.66m4.17-2.84l8.32-5.66m4.16-2.83l8.34-5.66m4.16-2.82l8.33-5.66m4.16-2.83l8.3-5.66m4.18-2.83l8.32-5.65m4.17-2.83l8.32-5.66m4.15-2.83l8.33-5.66m4.16-2.83l8.33-5.66m4.16-2.83l8.32-5.66m4.17-2.84l8.32-5.66m4.16-2.83l8.33-5.66m4.16-2.82l8.32-5.65m4.16-2.83l8.32-5.66m4.17-2.83l8.32-5.65m4.15-2.83l8.33-5.66m4.16-2.83l4.17-2.83" stroke="#3a414a" fill="none"/><path d="M752.6 240.2l-.27.18-.05-.05-.83-.5.6-.4z" stroke="#3a414a" stroke-width=".05" fill="#3a414a"/><path d="M1082.82 15.15l-10.87 22.5-14.06-20.67z" stroke="#3a414a" fill="#fff"/><path d="M1080-94a6 6 0 0 1 6-6h268a6 6 0 0 1 6 6V8a6 6 0 0 1-6 6h-268a6 6 0 0 1-6-6z" stroke="#3a414a" stroke-width="2" fill="#fff"/><path d="M1080-30.22h280" stroke="#3a414a" stroke-width="2" fill="none"/><g><use xlink:href="#ag" transform="matrix(1,0,0,1,1088,-92) translate(60.000217013888886 21.639756944444443)"/><use xlink:href="#ah" transform="matrix(1,0,0,1,1088,-92) translate(89.177734375 48.52777777777778)"/></g><g><use xlink:href="#ai" transform="matrix(1,0,0,1,1092,-22.22395833333333) translate(0 22.08376736111111)"/></g><path d="M258.5 582.38H-134a6 6 0 0 1-6-6v-427.3a6 6 0 0 0-6-6h-252.5" stroke="#3a414a" fill="none"/><path d="M259 582.85h-.5v-.95h.5zM-398.5 143.54h-.5v-.95h.5z" stroke="#3a414a" stroke-width=".05" fill="#3a414a"/><defs><path d="M180 0v-1490h270l367 940c28 72 75 218 110 339 35-117 81-264 110-339l362-940h271V0h-187c2-448-5-837 7-1287-157 497-311 829-483 1287H842C666-458 514-784 354-1284c12 438 5 843 7 1284H180" id="aj"/><path d="M613 24c-304 0-509-231-509-576 0-350 205-580 509-580 305 0 511 230 511 580 0 345-206 576-511 576zm0-161c226 0 329-195 329-415 0-222-103-419-329-419-223 0-326 196-326 419 0 220 103 415 326 415" id="ak"/><path d="M409 0L70-1118h191c89 329 165 560 243 925 75-353 154-601 240-925h192c85 325 161 564 235 922 77-354 157-598 244-922h191L1267 0h-179c-86-307-176-590-250-913C763-588 675-308 588 0H409" id="al"/><path d="M628 24c-324 0-524-230-524-574 0-343 198-582 503-582 237 0 487 146 487 559v75H286c9 234 145 362 343 362 132 0 231-58 273-172l174 48C1024-91 857 24 628 24zM287-650h624c-17-190-120-322-304-322-192 0-309 151-320 322" id="am"/><path d="M158 0v-1118h174v172h12c41-113 157-188 290-188 26 0 70 2 91 3v181c-11-2-60-10-108-10-161 0-279 109-279 260V0H158" id="an"/><path d="M783 20c-382 0-661-292-661-764 0-473 279-766 661-766 302 0 548 182 601 489h-190c-42-204-217-313-411-313-268 0-476 208-476 590 0 381 209 588 476 588 195 0 369-110 411-313h190c-52 303-296 489-601 489" id="ao"/><path d="M338-670V0H158v-1118h173l1 207c72-158 192-221 342-221 226 0 378 139 378 422V0H872v-695c0-172-96-275-252-275-161 0-282 109-282 300" id="ap"/><path d="M598-1118v154H368v674c0 100 37 144 132 144 23 0 62-6 92-12L629-6c-37 13-88 20-134 20-193 0-307-107-307-290v-688H20v-154h168v-266h180v266h230" id="aq"/><path d="M338-1490V0H158v-1490h180" id="ar"/><g id="a"><use transform="matrix(0.010850694444444444,0,0,0.010850694444444444,0,0)" xlink:href="#aj"/><use transform="matrix(0.010850694444444444,0,0,0.010850694444444444,20.07378472222222,0)" xlink:href="#ak"/><use transform="matrix(0.010850694444444444,0,0,0.010850694444444444,32.99696180555556,0)" xlink:href="#al"/><use transform="matrix(0.010850694444444444,0,0,0.010850694444444444,50.78125,0)" xlink:href="#am"/><use transform="matrix(0.010850694444444444,0,0,0.010850694444444444,63.736979166666664,0)" xlink:href="#an"/><use transform="matrix(0.010850694444444444,0,0,0.010850694444444444,72.10286458333333,0)" xlink:href="#ao"/><use transform="matrix(0.010850694444444444,0,0,0.010850694444444444,88.33550347222221,0)" xlink:href="#ak"/><use transform="matrix(0.010850694444444444,0,0,0.010850694444444444,101.66015624999997,0)" xlink:href="#ap"/><use transform="matrix(0.010850694444444444,0,0,0.010850694444444444,114.78949652777776,0)" xlink:href="#aq"/><use transform="matrix(0.010850694444444444,0,0,0.010850694444444444,122.05946180555553,0)" xlink:href="#an"/><use transform="matrix(0.010850694444444444,0,0,0.010850694444444444,130.0564236111111,0)" xlink:href="#ak"/><use transform="matrix(0.010850694444444444,0,0,0.010850694444444444,143.38107638888886,0)" xlink:href="#ar"/><use transform="matrix(0.010850694444444444,0,0,0.010850694444444444,148.76302083333331,0)" xlink:href="#ar"/><use transform="matrix(0.010850694444444444,0,0,0.010850694444444444,154.14496527777777,0)" xlink:href="#am"/><use transform="matrix(0.010850694444444444,0,0,0.010850694444444444,167.10069444444443,0)" xlink:href="#an"/></g><path d="M538 24C308 24 148-78 108-271l171-41c32 123 123 178 257 178 156 0 256-77 256-169 0-77-54-128-164-154l-186-44c-203-48-300-148-300-305 0-192 176-326 414-326 230 0 351 112 402 269l-163 42c-31-80-94-158-238-158-133 0-233 69-233 162 0 83 57 129 188 160l169 40c203 48 298 149 298 302 0 196-179 339-441 339" id="as"/><path d="M471 26C259 26 90-98 90-318c0-256 228-303 435-329 202-27 287-16 287-108 0-139-79-219-234-219-161 0-248 86-283 164l-173-57c86-203 278-265 451-265 150 0 419 46 419 395V0H815v-152h-12C765-73 660 26 471 26zm31-159c199 0 310-134 310-271v-155c-30 35-226 55-295 64-131 17-246 59-246 186 0 116 97 176 231 176" id="at"/><path d="M180 0v-1490h510c348 0 508 209 508 474 0 266-160 477-507 477H370V0H180zm190-706h312c236 0 327-133 327-310 0-176-91-307-329-307H370v617" id="au"/><path d="M577 24c-279 0-473-224-473-580 0-354 195-576 474-576 218 0 287 134 324 193h14v-551h180V0H922v-173h-20C865-111 790 24 577 24zm27-161c203 0 314-172 314-421 0-247-108-413-314-413-212 0-317 181-317 413 0 235 108 421 317 421" id="av"/><path d="M218-607c0-325 108-727 258-974h175c-155 315-250 682-250 974 0 265 78 531 250 886H476C306-10 218-315 218-607" id="aw"/><path d="M96 279C273-86 346-350 346-607c0-292-95-659-250-974h175c150 246 258 650 258 974 0 297-91 602-258 886H96" id="ax"/><g id="b"><use transform="matrix(0.010850694444444444,0,0,0.010850694444444444,0,0)" xlink:href="#as"/><use transform="matrix(0.010850694444444444,0,0,0.010850694444444444,11.729600694444445,0)" xlink:href="#aq"/><use transform="matrix(0.010850694444444444,0,0,0.010850694444444444,19.108072916666668,0)" xlink:href="#at"/><use transform="matrix(0.010850694444444444,0,0,0.010850694444444444,31.586371527777775,0)" xlink:href="#an"/><use transform="matrix(0.010850694444444444,0,0,0.010850694444444444,40.299479166666664,0)" xlink:href="#aq"/><use transform="matrix(0.010850694444444444,0,0,0.010850694444444444,47.56944444444444,0)" xlink:href="#au"/><use transform="matrix(0.010850694444444444,0,0,0.010850694444444444,61.76215277777778,0)" xlink:href="#an"/><use transform="matrix(0.010850694444444444,0,0,0.010850694444444444,69.75911458333333,0)" xlink:href="#am"/><use transform="matrix(0.010850694444444444,0,0,0.010850694444444444,82.71484375,0)" xlink:href="#as"/><use transform="matrix(0.010850694444444444,0,0,0.010850694444444444,94.44444444444444,0)" xlink:href="#as"/><use transform="matrix(0.010850694444444444,0,0,0.010850694444444444,106.17404513888889,0)" xlink:href="#am"/><use transform="matrix(0.010850694444444444,0,0,0.010850694444444444,119.12977430555556,0)" xlink:href="#av"/><use transform="matrix(0.010850694444444444,0,0,0.010850694444444444,132.73654513888889,0)" xlink:href="#aw"/><use transform="matrix(0.010850694444444444,0,0,0.010850694444444444,140.84201388888889,0)" xlink:href="#ax"/></g><path d="M158 418v-1536h174v179h20c37-59 106-193 324-193 279 0 474 222 474 576 0 356-194 580-473 580-213 0-288-135-325-197h-14v591H158zm492-555c209 0 317-186 317-421 0-232-105-413-317-413-206 0-314 166-314 413 0 249 111 421 314 421" id="ay"/><g id="c"><use transform="matrix(0.010850694444444444,0,0,0.010850694444444444,0,0)" xlink:href="#as"/><use transform="matrix(0.010850694444444444,0,0,0.010850694444444444,11.729600694444445,0)" xlink:href="#aq"/><use transform="matrix(0.010850694444444444,0,0,0.010850694444444444,18.782552083333332,0)" xlink:href="#ak"/><use transform="matrix(0.010850694444444444,0,0,0.010850694444444444,32.10720486111111,0)" xlink:href="#ay"/><use transform="matrix(0.010850694444444444,0,0,0.010850694444444444,45.71397569444444,0)" xlink:href="#au"/><use transform="matrix(0.010850694444444444,0,0,0.010850694444444444,59.90668402777778,0)" xlink:href="#an"/><use transform="matrix(0.010850694444444444,0,0,0.010850694444444444,67.90364583333333,0)" xlink:href="#am"/><use transform="matrix(0.010850694444444444,0,0,0.010850694444444444,80.859375,0)" xlink:href="#as"/><use transform="matrix(0.010850694444444444,0,0,0.010850694444444444,92.58897569444444,0)" xlink:href="#as"/><use transform="matrix(0.010850694444444444,0,0,0.010850694444444444,104.31857638888889,0)" xlink:href="#am"/><use transform="matrix(0.010850694444444444,0,0,0.010850694444444444,117.27430555555556,0)" xlink:href="#av"/><use transform="matrix(0.010850694444444444,0,0,0.010850694444444444,130.88107638888889,0)" xlink:href="#aw"/><use transform="matrix(0.010850694444444444,0,0,0.010850694444444444,138.98654513888889,0)" xlink:href="#ax"/></g><path d="M158 0v-1118h180V0H158zm91-1301c-68 0-125-53-125-119s57-119 125-119c69 0 126 53 126 119s-57 119-126 119" id="az"/><path d="M158 0v-1118h175l1 205c55-151 181-225 313-225 147 0 245 90 285 228 53-141 190-228 352-228 194 0 352 125 352 384V0h-181v-749c0-161-105-225-225-225-151 0-243 103-243 244V0H807v-767c0-124-93-207-219-207-131 0-250 92-250 270V0H158" id="aA"/><path d="M784 20c-382 0-662-292-662-764 0-473 280-766 662-766s660 293 660 766c0 472-278 764-660 764zm0-176c266 0 475-207 475-588 0-383-209-590-475-590-268 0-477 208-477 590 0 380 209 588 477 588" id="aB"/><path d="M678-1118v154H420V0H240v-964H20v-154h220v-149c0-194 155-293 318-293 85 0 141 18 168 30l-50 154c-19-6-47-17-97-17-111 0-159 58-159 166v109h258" id="aC"/><g id="d"><use transform="matrix(0.010850694444444444,0,0,0.010850694444444444,0,0)" xlink:href="#aq"/><use transform="matrix(0.010850694444444444,0,0,0.010850694444444444,7.269965277777778,0)" xlink:href="#az"/><use transform="matrix(0.010850694444444444,0,0,0.010850694444444444,12.651909722222221,0)" xlink:href="#aA"/><use transform="matrix(0.010850694444444444,0,0,0.010850694444444444,32.11805555555556,0)" xlink:href="#am"/><use transform="matrix(0.010850694444444444,0,0,0.010850694444444444,45.07378472222222,0)" xlink:href="#an"/><use transform="matrix(0.010850694444444444,0,0,0.010850694444444444,53.439670138888886,0)" xlink:href="#aB"/><use transform="matrix(0.010850694444444444,0,0,0.010850694444444444,70.43185763888889,0)" xlink:href="#aC"/><use transform="matrix(0.010850694444444444,0,0,0.010850694444444444,77.78862847222221,0)" xlink:href="#aC"/><use transform="matrix(0.010850694444444444,0,0,0.010850694444444444,86.0134548611111,0)" xlink:href="#aw"/><use transform="matrix(0.010850694444444444,0,0,0.010850694444444444,94.11892361111111,0)" xlink:href="#ax"/></g><path d="M174-520v-126l944-476v196L406-588v12l712 338v194" id="aD"/><path d="M128 359l88-567h206L266 359H128" id="aE"/><g id="e"><use transform="matrix(0.010850694444444444,0,0,0.010850694444444444,0,0)" xlink:href="#aD"/><use transform="matrix(0.010850694444444444,0,0,0.010850694444444444,14.702690972222221,0)" xlink:href="#aD"/><use transform="matrix(0.010850694444444444,0,0,0.010850694444444444,29.405381944444443,0)" xlink:href="#as"/><use transform="matrix(0.010850694444444444,0,0,0.010850694444444444,41.134982638888886,0)" xlink:href="#aq"/><use transform="matrix(0.010850694444444444,0,0,0.010850694444444444,48.51345486111111,0)" xlink:href="#at"/><use transform="matrix(0.010850694444444444,0,0,0.010850694444444444,60.99175347222221,0)" xlink:href="#aq"/><use transform="matrix(0.010850694444444444,0,0,0.010850694444444444,68.0447048611111,0)" xlink:href="#am"/><use transform="matrix(0.010850694444444444,0,0,0.010850694444444444,81.00043402777777,0)" xlink:href="#aE"/></g><path d="M677 24c-213 0-288-135-325-197h-20V0H158v-1490h180v551h14c37-59 106-193 324-193 279 0 474 222 474 576 0 356-194 580-473 580zm-27-161c209 0 317-186 317-421 0-232-105-413-317-413-206 0-314 166-314 413 0 249 111 421 314 421" id="aF"/><path d="M481 0L54-1118h197c107 314 236 620 325 951 87-331 217-637 324-951h197L670 0H481" id="aG"/><path d="M1181-520L237-44v-194l712-338v-12L237-926v-196l944 476v126" id="aH"/><g id="f"><use transform="matrix(0.010850694444444444,0,0,0.010850694444444444,0,0)" xlink:href="#ak"/><use transform="matrix(0.010850694444444444,0,0,0.010850694444444444,13.324652777777777,0)" xlink:href="#aF"/><use transform="matrix(0.010850694444444444,0,0,0.010850694444444444,26.931423611111104,0)" xlink:href="#as"/><use transform="matrix(0.010850694444444444,0,0,0.010850694444444444,38.66102430555555,0)" xlink:href="#am"/><use transform="matrix(0.010850694444444444,0,0,0.010850694444444444,51.61675347222221,0)" xlink:href="#an"/><use transform="matrix(0.010850694444444444,0,0,0.010850694444444444,60.3298611111111,0)" xlink:href="#aG"/><use transform="matrix(0.010850694444444444,0,0,0.010850694444444444,72.71050347222221,0)" xlink:href="#at"/><use transform="matrix(0.010850694444444444,0,0,0.010850694444444444,85.18880208333333,0)" xlink:href="#aF"/><use transform="matrix(0.010850694444444444,0,0,0.010850694444444444,98.79557291666666,0)" xlink:href="#ar"/><use transform="matrix(0.010850694444444444,0,0,0.010850694444444444,104.17751736111111,0)" xlink:href="#am"/><use transform="matrix(0.010850694444444444,0,0,0.010850694444444444,117.13324652777777,0)" xlink:href="#aH"/><use transform="matrix(0.010850694444444444,0,0,0.010850694444444444,131.8359375,0)" xlink:href="#aH"/></g><path d="M657 26c-323 0-524-166-541-416h195c15 169 171 246 346 246 202 0 356-106 356-265 5-203-294-238-475-293-239-73-380-191-380-389 0-252 224-419 512-419 294 0 499 171 508 396H992c-17-145-151-228-328-228-193 0-321 102-321 242 0 156 175 211 284 241l149 41c160 44 422 134 422 412 0 244-197 432-541 432" id="aI"/><g id="g"><use transform="matrix(0.010850694444444444,0,0,0.010850694444444444,0,0)" xlink:href="#aI"/><use transform="matrix(0.010850694444444444,0,0,0.010850694444444444,14.2578125,0)" xlink:href="#aq"/><use transform="matrix(0.010850694444444444,0,0,0.010850694444444444,21.63628472222222,0)" xlink:href="#at"/><use transform="matrix(0.010850694444444444,0,0,0.010850694444444444,34.11458333333333,0)" xlink:href="#aq"/><use transform="matrix(0.010850694444444444,0,0,0.010850694444444444,41.16753472222222,0)" xlink:href="#am"/></g><g id="h"><use transform="matrix(0.010850694444444444,0,0,0.010850694444444444,0,0)" xlink:href="#as"/><use transform="matrix(0.010850694444444444,0,0,0.010850694444444444,11.729600694444445,0)" xlink:href="#aq"/><use transform="matrix(0.010850694444444444,0,0,0.010850694444444444,19.108072916666668,0)" xlink:href="#at"/><use transform="matrix(0.010850694444444444,0,0,0.010850694444444444,31.586371527777775,0)" xlink:href="#an"/><use transform="matrix(0.010850694444444444,0,0,0.010850694444444444,40.299479166666664,0)" xlink:href="#aq"/><use transform="matrix(0.010850694444444444,0,0,0.010850694444444444,47.56944444444444,0)" xlink:href="#au"/><use transform="matrix(0.010850694444444444,0,0,0.010850694444444444,61.76215277777778,0)" xlink:href="#an"/><use transform="matrix(0.010850694444444444,0,0,0.010850694444444444,69.75911458333333,0)" xlink:href="#am"/><use transform="matrix(0.010850694444444444,0,0,0.010850694444444444,82.71484375,0)" xlink:href="#as"/><use transform="matrix(0.010850694444444444,0,0,0.010850694444444444,94.44444444444444,0)" xlink:href="#as"/><use transform="matrix(0.010850694444444444,0,0,0.010850694444444444,106.17404513888889,0)" xlink:href="#am"/><use transform="matrix(0.010850694444444444,0,0,0.010850694444444444,119.12977430555556,0)" xlink:href="#av"/><use transform="matrix(0.010850694444444444,0,0,0.010850694444444444,132.73654513888889,0)" xlink:href="#aw"/><use transform="matrix(0.010850694444444444,0,0,0.010850694444444444,140.84201388888889,0)" xlink:href="#ax"/></g><path d="M295 13c-75 0-135-60-135-135s60-135 135-135 135 60 135 135S370 13 295 13zm0-809c-75 0-135-60-135-135s60-135 135-135 135 60 135 135-60 135-135 135" id="aJ"/><use transform="matrix(0.010850694444444444,0,0,0.010850694444444444,0,0)" xlink:href="#aJ" id="i"/><g id="j"><use transform="matrix(0.010850694444444444,0,0,0.010850694444444444,0,0)" xlink:href="#aI"/><use transform="matrix(0.010850694444444444,0,0,0.010850694444444444,14.2578125,0)" xlink:href="#aq"/><use transform="matrix(0.010850694444444444,0,0,0.010850694444444444,21.63628472222222,0)" xlink:href="#at"/><use transform="matrix(0.010850694444444444,0,0,0.010850694444444444,34.11458333333333,0)" xlink:href="#aq"/><use transform="matrix(0.010850694444444444,0,0,0.010850694444444444,41.16753472222222,0)" xlink:href="#am"/></g><g id="k"><use transform="matrix(0.010850694444444444,0,0,0.010850694444444444,0,0)" xlink:href="#as"/><use transform="matrix(0.010850694444444444,0,0,0.010850694444444444,11.729600694444445,0)" xlink:href="#aq"/><use transform="matrix(0.010850694444444444,0,0,0.010850694444444444,18.782552083333332,0)" xlink:href="#ak"/><use transform="matrix(0.010850694444444444,0,0,0.010850694444444444,32.10720486111111,0)" xlink:href="#ay"/><use transform="matrix(0.010850694444444444,0,0,0.010850694444444444,45.71397569444444,0)" xlink:href="#au"/><use transform="matrix(0.010850694444444444,0,0,0.010850694444444444,59.90668402777778,0)" xlink:href="#an"/><use transform="matrix(0.010850694444444444,0,0,0.010850694444444444,67.90364583333333,0)" xlink:href="#am"/><use transform="matrix(0.010850694444444444,0,0,0.010850694444444444,80.859375,0)" xlink:href="#as"/><use transform="matrix(0.010850694444444444,0,0,0.010850694444444444,92.58897569444444,0)" xlink:href="#as"/><use transform="matrix(0.010850694444444444,0,0,0.010850694444444444,104.31857638888889,0)" xlink:href="#am"/><use transform="matrix(0.010850694444444444,0,0,0.010850694444444444,117.27430555555556,0)" xlink:href="#av"/><use transform="matrix(0.010850694444444444,0,0,0.010850694444444444,130.88107638888889,0)" xlink:href="#aw"/><use transform="matrix(0.010850694444444444,0,0,0.010850694444444444,138.98654513888889,0)" xlink:href="#ax"/></g><path d="M180 0v-1490h908v168H370v486h669v168H370v500h727V0H180" id="aK"/><g id="l"><use transform="matrix(0.010850694444444444,0,0,0.010850694444444444,0,0)" xlink:href="#aK"/><use transform="matrix(0.010850694444444444,0,0,0.010850694444444444,13.35720486111111,0)" xlink:href="#at"/><use transform="matrix(0.010850694444444444,0,0,0.010850694444444444,25.83550347222222,0)" xlink:href="#as"/><use transform="matrix(0.010850694444444444,0,0,0.010850694444444444,37.565104166666664,0)" xlink:href="#aq"/></g><g id="m"><use transform="matrix(0.010850694444444444,0,0,0.010850694444444444,0,0)" xlink:href="#aq"/><use transform="matrix(0.010850694444444444,0,0,0.010850694444444444,7.269965277777778,0)" xlink:href="#az"/><use transform="matrix(0.010850694444444444,0,0,0.010850694444444444,12.651909722222221,0)" xlink:href="#aA"/><use transform="matrix(0.010850694444444444,0,0,0.010850694444444444,32.11805555555556,0)" xlink:href="#am"/><use transform="matrix(0.010850694444444444,0,0,0.010850694444444444,45.07378472222222,0)" xlink:href="#an"/><use transform="matrix(0.010850694444444444,0,0,0.010850694444444444,53.439670138888886,0)" xlink:href="#aB"/><use transform="matrix(0.010850694444444444,0,0,0.010850694444444444,70.43185763888889,0)" xlink:href="#aC"/><use transform="matrix(0.010850694444444444,0,0,0.010850694444444444,77.78862847222221,0)" xlink:href="#aC"/><use transform="matrix(0.010850694444444444,0,0,0.010850694444444444,86.0134548611111,0)" xlink:href="#aw"/><use transform="matrix(0.010850694444444444,0,0,0.010850694444444444,94.11892361111111,0)" xlink:href="#ax"/></g><path d="M458 0L52-1490h194c108 439 233 855 324 1313 92-459 221-873 331-1313h216c110 438 234 854 330 1307 92-455 216-869 323-1307h196L1558 0h-221l-256-944c-26-95-50-200-73-331-22 122-44 223-73 331L680 0H458" id="aL"/><g id="n"><use transform="matrix(0.010850694444444444,0,0,0.010850694444444444,0,0)" xlink:href="#aL"/><use transform="matrix(0.010850694444444444,0,0,0.010850694444444444,20.768229166666668,0)" xlink:href="#am"/><use transform="matrix(0.010850694444444444,0,0,0.010850694444444444,33.723958333333336,0)" xlink:href="#as"/><use transform="matrix(0.010850694444444444,0,0,0.010850694444444444,45.45355902777778,0)" xlink:href="#aq"/></g><g id="o"><use transform="matrix(0.010850694444444444,0,0,0.010850694444444444,0,0)" xlink:href="#aK"/><use transform="matrix(0.010850694444444444,0,0,0.010850694444444444,13.35720486111111,0)" xlink:href="#at"/><use transform="matrix(0.010850694444444444,0,0,0.010850694444444444,25.83550347222222,0)" xlink:href="#as"/><use transform="matrix(0.010850694444444444,0,0,0.010850694444444444,37.565104166666664,0)" xlink:href="#aq"/></g><path d="M537 14c-226 0-379-139-379-422v-710h180v695c0 172 97 275 253 275 160 0 281-109 281-300v-670h181V0H879v-209C806-46 684 14 537 14" id="aM"/><path d="M338-670V0H158v-1490h180v566c73-149 190-208 336-208 226 0 379 139 379 422V0H872v-695c0-172-96-275-252-275-161 0-282 109-282 300" id="aN"/><g id="p"><use transform="matrix(0.010850694444444444,0,0,0.010850694444444444,0,0)" xlink:href="#aI"/><use transform="matrix(0.010850694444444444,0,0,0.010850694444444444,14.2578125,0)" xlink:href="#ak"/><use transform="matrix(0.010850694444444444,0,0,0.010850694444444444,27.58246527777778,0)" xlink:href="#aM"/><use transform="matrix(0.010850694444444444,0,0,0.010850694444444444,40.72265625,0)" xlink:href="#aq"/><use transform="matrix(0.010850694444444444,0,0,0.010850694444444444,47.99262152777778,0)" xlink:href="#aN"/></g><g id="q"><use transform="matrix(0.010850694444444444,0,0,0.010850694444444444,0,0)" xlink:href="#aL"/><use transform="matrix(0.010850694444444444,0,0,0.010850694444444444,20.768229166666668,0)" xlink:href="#am"/><use transform="matrix(0.010850694444444444,0,0,0.010850694444444444,33.723958333333336,0)" xlink:href="#as"/><use transform="matrix(0.010850694444444444,0,0,0.010850694444444444,45.45355902777778,0)" xlink:href="#aq"/></g><g id="r"><use transform="matrix(0.010850694444444444,0,0,0.010850694444444444,0,0)" xlink:href="#aj"/><use transform="matrix(0.010850694444444444,0,0,0.010850694444444444,20.07378472222222,0)" xlink:href="#ak"/><use transform="matrix(0.010850694444444444,0,0,0.010850694444444444,32.99696180555556,0)" xlink:href="#al"/><use transform="matrix(0.010850694444444444,0,0,0.010850694444444444,50.78125,0)" xlink:href="#am"/><use transform="matrix(0.010850694444444444,0,0,0.010850694444444444,63.736979166666664,0)" xlink:href="#an"/></g><path d="M180 0v-1490h190v644h782v-644h190V0h-190v-678H370V0H180" id="aO"/><g id="s"><use transform="matrix(0.010850694444444444,0,0,0.010850694444444444,0,0)" xlink:href="#aw"/><use transform="matrix(0.010850694444444444,0,0,0.010850694444444444,8.10546875,0)" xlink:href="#aO"/><use transform="matrix(0.010850694444444444,0,0,0.010850694444444444,24.620225694444443,0)" xlink:href="#aL"/><use transform="matrix(0.010850694444444444,0,0,0.010850694444444444,46.51692708333333,0)" xlink:href="#ax"/></g><path d="M580 20c-295 0-476-179-476-409 0-189 123-290 294-416-104-125-173-226-173-362 0-197 144-337 365-337 224 0 362 144 362 321 0 185-174 312-306 405l319 387c38-75 61-165 61-267h173c0 208-62 332-120 406L1287 0h-217L967-124C868-27 716 20 580 20zm279-273L507-675l-51 38c-123 91-167 162-167 254 0 147 113 246 278 246 107 0 210-41 292-116zM538-908l97-72c54-40 136-101 136-206 0-95-68-163-176-163-113 0-189 74-189 181 0 90 53 164 132 260" id="aP"/><path d="M613 24c-304 0-509-231-509-576 0-350 205-580 509-580 216 0 392 114 453 309l-173 49c-33-115-133-197-280-197-223 0-326 196-326 419 0 220 103 415 326 415 150 0 252-85 285-206l172 49C1010-95 832 24 613 24" id="aQ"/><g id="t"><use transform="matrix(0.010850694444444444,0,0,0.010850694444444444,0,0)" xlink:href="#aC"/><use transform="matrix(0.010850694444444444,0,0,0.010850694444444444,8.550347222222223,0)" xlink:href="#al"/><use transform="matrix(0.010850694444444444,0,0,0.010850694444444444,26.334635416666664,0)" xlink:href="#av"/><use transform="matrix(0.010850694444444444,0,0,0.010850694444444444,39.94140625,0)" xlink:href="#aP"/><use transform="matrix(0.010850694444444444,0,0,0.010850694444444444,54.25347222222222,0)" xlink:href="#aQ"/><use transform="matrix(0.010850694444444444,0,0,0.010850694444444444,66.94878472222223,0)" xlink:href="#aM"/><use transform="matrix(0.010850694444444444,0,0,0.010850694444444444,80.08897569444446,0)" xlink:href="#aq"/><use transform="matrix(0.010850694444444444,0,0,0.010850694444444444,87.35894097222223,0)" xlink:href="#aw"/><use transform="matrix(0.010850694444444444,0,0,0.010850694444444444,95.46440972222221,0)" xlink:href="#ax"/></g><g id="u"><use transform="matrix(0.010850694444444444,0,0,0.010850694444444444,0,0)" xlink:href="#aq"/><use transform="matrix(0.010850694444444444,0,0,0.010850694444444444,7.269965277777778,0)" xlink:href="#aM"/><use transform="matrix(0.010850694444444444,0,0,0.010850694444444444,20.41015625,0)" xlink:href="#an"/><use transform="matrix(0.010850694444444444,0,0,0.010850694444444444,29.12326388888889,0)" xlink:href="#ap"/><use transform="matrix(0.010850694444444444,0,0,0.010850694444444444,42.252604166666664,0)" xlink:href="#aB"/><use transform="matrix(0.010850694444444444,0,0,0.010850694444444444,59.244791666666664,0)" xlink:href="#ap"/><use transform="matrix(0.010850694444444444,0,0,0.010850694444444444,72.37413194444444,0)" xlink:href="#aw"/><use transform="matrix(0.010850694444444444,0,0,0.010850694444444444,80.47960069444444,0)" xlink:href="#ax"/></g><g id="v"><use transform="matrix(0.010850694444444444,0,0,0.010850694444444444,0,0)" xlink:href="#aq"/><use transform="matrix(0.010850694444444444,0,0,0.010850694444444444,7.269965277777778,0)" xlink:href="#aM"/><use transform="matrix(0.010850694444444444,0,0,0.010850694444444444,20.41015625,0)" xlink:href="#an"/><use transform="matrix(0.010850694444444444,0,0,0.010850694444444444,29.12326388888889,0)" xlink:href="#ap"/><use transform="matrix(0.010850694444444444,0,0,0.010850694444444444,42.252604166666664,0)" xlink:href="#aB"/><use transform="matrix(0.010850694444444444,0,0,0.010850694444444444,59.244791666666664,0)" xlink:href="#aC"/><use transform="matrix(0.010850694444444444,0,0,0.010850694444444444,66.6015625,0)" xlink:href="#aC"/><use transform="matrix(0.010850694444444444,0,0,0.010850694444444444,74.82638888888889,0)" xlink:href="#aw"/><use transform="matrix(0.010850694444444444,0,0,0.010850694444444444,82.93185763888889,0)" xlink:href="#ax"/></g><path d="M611 442c-248 0-391-105-460-228l146-94c47 65 117 165 314 165 178 0 307-82 307-266v-224h-17C863-141 792-18 576-18c-268 0-472-195-472-546 0-346 197-568 476-568 216 0 288 133 326 193h17v-179h175V29c0 289-215 413-487 413zm-5-620c203 0 314-146 314-390 0-237-108-403-314-403-213 0-319 180-319 403 0 230 109 390 319 390" id="aR"/><g id="w"><use transform="matrix(0.010850694444444444,0,0,0.010850694444444444,0,0)" xlink:href="#at"/><use transform="matrix(0.010850694444444444,0,0,0.010850694444444444,12.47829861111111,0)" xlink:href="#aq"/><use transform="matrix(0.010850694444444444,0,0,0.010850694444444444,19.74826388888889,0)" xlink:href="#aK"/><use transform="matrix(0.010850694444444444,0,0,0.010850694444444444,33.10546875,0)" xlink:href="#av"/><use transform="matrix(0.010850694444444444,0,0,0.010850694444444444,46.71223958333333,0)" xlink:href="#aR"/><use transform="matrix(0.010850694444444444,0,0,0.010850694444444444,60.34071180555555,0)" xlink:href="#am"/><use transform="matrix(0.010850694444444444,0,0,0.010850694444444444,73.29644097222221,0)" xlink:href="#aw"/><use transform="matrix(0.010850694444444444,0,0,0.010850694444444444,81.40190972222221,0)" xlink:href="#az"/><use transform="matrix(0.010850694444444444,0,0,0.010850694444444444,86.78385416666666,0)" xlink:href="#aE"/></g><path d="M157-1118h181V80c1 225-123 350-364 338V252c126 9 184-48 183-172v-1198zm91-183c-68 0-125-53-125-119s57-119 125-119c69 0 126 53 126 119s-57 119-126 119" id="aS"/><g id="x"><use transform="matrix(0.010850694444444444,0,0,0.010850694444444444,0,0)" xlink:href="#aS"/><use transform="matrix(0.010850694444444444,0,0,0.010850694444444444,5.381944444444445,0)" xlink:href="#ax"/></g><use transform="matrix(0.010850694444444444,0,0,0.010850694444444444,0,0)" xlink:href="#aJ" id="y"/><g id="z"><use transform="matrix(0.010850694444444444,0,0,0.010850694444444444,0,0)" xlink:href="#aF"/><use transform="matrix(0.010850694444444444,0,0,0.010850694444444444,13.606770833333332,0)" xlink:href="#ak"/><use transform="matrix(0.010850694444444444,0,0,0.010850694444444444,26.931423611111104,0)" xlink:href="#ak"/><use transform="matrix(0.010850694444444444,0,0,0.010850694444444444,40.256076388888886,0)" xlink:href="#ar"/><use transform="matrix(0.010850694444444444,0,0,0.010850694444444444,45.63802083333333,0)" xlink:href="#am"/><use transform="matrix(0.010850694444444444,0,0,0.010850694444444444,58.81076388888888,0)" xlink:href="#at"/><use transform="matrix(0.010850694444444444,0,0,0.010850694444444444,71.28906249999999,0)" xlink:href="#ap"/></g><g id="A"><use transform="matrix(0.010850694444444444,0,0,0.010850694444444444,0,0)" xlink:href="#aD"/><use transform="matrix(0.010850694444444444,0,0,0.010850694444444444,14.702690972222221,0)" xlink:href="#aD"/><use transform="matrix(0.010850694444444444,0,0,0.010850694444444444,29.405381944444443,0)" xlink:href="#ak"/><use transform="matrix(0.010850694444444444,0,0,0.010850694444444444,42.73003472222222,0)" xlink:href="#aF"/><use transform="matrix(0.010850694444444444,0,0,0.010850694444444444,56.33680555555555,0)" xlink:href="#as"/><use transform="matrix(0.010850694444444444,0,0,0.010850694444444444,68.06640625,0)" xlink:href="#am"/><use transform="matrix(0.010850694444444444,0,0,0.010850694444444444,81.02213541666667,0)" xlink:href="#an"/><use transform="matrix(0.010850694444444444,0,0,0.010850694444444444,89.73524305555557,0)" xlink:href="#aG"/><use transform="matrix(0.010850694444444444,0,0,0.010850694444444444,101.79036458333334,0)" xlink:href="#am"/><use transform="matrix(0.010850694444444444,0,0,0.010850694444444444,114.74609375000003,0)" xlink:href="#an"/><use transform="matrix(0.010850694444444444,0,0,0.010850694444444444,123.1119791666667,0)" xlink:href="#aH"/><use transform="matrix(0.010850694444444444,0,0,0.010850694444444444,137.8146701388889,0)" xlink:href="#aH"/></g><path d="M789 20c-398 0-667-293-667-764 0-473 273-766 655-766 315 0 558 198 612 487h-196c-61-191-204-311-415-311-262 0-471 207-471 590 0 380 208 588 482 588 249 0 420-165 425-427H828v-166h572v163c0 370-256 606-611 606" id="aT"/><path d="M763 24c-353 0-583-224-583-531v-983h190v968c0 214 149 370 393 370 243 0 391-156 391-370v-968h190v983c0 307-230 531-581 531" id="aU"/><path d="M370-1490V0H180v-1490h190" id="aV"/><g id="B"><use transform="matrix(0.010850694444444444,0,0,0.010850694444444444,0,0)" xlink:href="#aT"/><use transform="matrix(0.010850694444444444,0,0,0.010850694444444444,16.57986111111111,0)" xlink:href="#aU"/><use transform="matrix(0.010850694444444444,0,0,0.010850694444444444,33.11631944444444,0)" xlink:href="#aV"/></g><g id="C"><use transform="matrix(0.010850694444444444,0,0,0.010850694444444444,0,0)" xlink:href="#aM"/><use transform="matrix(0.010850694444444444,0,0,0.010850694444444444,13.140190972222221,0)" xlink:href="#ay"/><use transform="matrix(0.010850694444444444,0,0,0.010850694444444444,26.746961805555554,0)" xlink:href="#av"/><use transform="matrix(0.010850694444444444,0,0,0.010850694444444444,40.353732638888886,0)" xlink:href="#at"/><use transform="matrix(0.010850694444444444,0,0,0.010850694444444444,52.83203125,0)" xlink:href="#aq"/><use transform="matrix(0.010850694444444444,0,0,0.010850694444444444,59.8849826388889,0)" xlink:href="#am"/><use transform="matrix(0.010850694444444444,0,0,0.010850694444444444,72.84071180555556,0)" xlink:href="#aw"/><use transform="matrix(0.010850694444444444,0,0,0.010850694444444444,80.94618055555556,0)" xlink:href="#az"/><use transform="matrix(0.010850694444444444,0,0,0.010850694444444444,86.328125,0)" xlink:href="#aE"/></g><path d="M128 359l88-567h206L266 359H128zM323-796c-75 0-135-60-135-135s60-135 135-135 135 60 135 135-60 135-135 135" id="aW"/><g id="D"><use transform="matrix(0.010850694444444444,0,0,0.010850694444444444,0,0)" xlink:href="#aS"/><use transform="matrix(0.010850694444444444,0,0,0.010850694444444444,5.381944444444445,0)" xlink:href="#ax"/><use transform="matrix(0.010850694444444444,0,0,0.010850694444444444,13.487413194444445,0)" xlink:href="#aW"/></g><g id="E"><use transform="matrix(0.010850694444444444,0,0,0.010850694444444444,0,0)" xlink:href="#aq"/><use transform="matrix(0.010850694444444444,0,0,0.010850694444444444,7.269965277777778,0)" xlink:href="#az"/><use transform="matrix(0.010850694444444444,0,0,0.010850694444444444,12.651909722222221,0)" xlink:href="#aA"/><use transform="matrix(0.010850694444444444,0,0,0.010850694444444444,32.11805555555556,0)" xlink:href="#am"/><use transform="matrix(0.010850694444444444,0,0,0.010850694444444444,45.07378472222222,0)" xlink:href="#an"/><use transform="matrix(0.010850694444444444,0,0,0.010850694444444444,53.439670138888886,0)" xlink:href="#aB"/><use transform="matrix(0.010850694444444444,0,0,0.010850694444444444,70.43185763888889,0)" xlink:href="#aC"/><use transform="matrix(0.010850694444444444,0,0,0.010850694444444444,77.78862847222221,0)" xlink:href="#aC"/><use transform="matrix(0.010850694444444444,0,0,0.010850694444444444,86.0134548611111,0)" xlink:href="#aw"/><use transform="matrix(0.010850694444444444,0,0,0.010850694444444444,94.11892361111111,0)" xlink:href="#ax"/><use transform="matrix(0.010850694444444444,0,0,0.010850694444444444,102.22439236111111,0)" xlink:href="#aJ"/></g><path d="M204-479l-12-1011h204L383-479H204zm91 492c-75 0-135-60-135-134 0-75 60-135 135-135 74 0 134 60 134 135 0 74-60 134-134 134" id="aX"/><path d="M295 13c-75 0-135-60-135-135s60-135 135-135 135 60 135 135S370 13 295 13" id="aY"/><g id="F"><use transform="matrix(0.010850694444444444,0,0,0.010850694444444444,0,0)" xlink:href="#az"/><use transform="matrix(0.010850694444444444,0,0,0.010850694444444444,5.381944444444445,0)" xlink:href="#aC"/><use transform="matrix(0.010850694444444444,0,0,0.010850694444444444,13.606770833333332,0)" xlink:href="#aw"/><use transform="matrix(0.010850694444444444,0,0,0.010850694444444444,21.712239583333336,0)" xlink:href="#aX"/><use transform="matrix(0.010850694444444444,0,0,0.010850694444444444,28.103298611111114,0)" xlink:href="#aA"/><use transform="matrix(0.010850694444444444,0,0,0.010850694444444444,47.56944444444444,0)" xlink:href="#ak"/><use transform="matrix(0.010850694444444444,0,0,0.010850694444444444,60.49262152777778,0)" xlink:href="#al"/><use transform="matrix(0.010850694444444444,0,0,0.010850694444444444,78.27690972222223,0)" xlink:href="#am"/><use transform="matrix(0.010850694444444444,0,0,0.010850694444444444,91.2326388888889,0)" xlink:href="#an"/><use transform="matrix(0.010850694444444444,0,0,0.010850694444444444,98.20963541666669,0)" xlink:href="#aY"/><use transform="matrix(0.010850694444444444,0,0,0.010850694444444444,104.6115451388889,0)" xlink:href="#at"/><use transform="matrix(0.010850694444444444,0,0,0.010850694444444444,117.08984375000003,0)" xlink:href="#aq"/><use transform="matrix(0.010850694444444444,0,0,0.010850694444444444,124.3598090277778,0)" xlink:href="#aK"/><use transform="matrix(0.010850694444444444,0,0,0.010850694444444444,137.7170138888889,0)" xlink:href="#av"/><use transform="matrix(0.010850694444444444,0,0,0.010850694444444444,151.32378472222226,0)" xlink:href="#aR"/><use transform="matrix(0.010850694444444444,0,0,0.010850694444444444,164.95225694444449,0)" xlink:href="#am"/><use transform="matrix(0.010850694444444444,0,0,0.010850694444444444,177.90798611111114,0)" xlink:href="#aw"/><use transform="matrix(0.010850694444444444,0,0,0.010850694444444444,186.01345486111114,0)" xlink:href="#az"/><use transform="matrix(0.010850694444444444,0,0,0.010850694444444444,191.3953993055556,0)" xlink:href="#aE"/></g><g id="G"><use transform="matrix(0.010850694444444444,0,0,0.010850694444444444,0,0)" xlink:href="#aS"/><use transform="matrix(0.010850694444444444,0,0,0.010850694444444444,5.381944444444445,0)" xlink:href="#ax"/><use transform="matrix(0.010850694444444444,0,0,0.010850694444444444,13.487413194444445,0)" xlink:href="#ax"/></g><path d="M750 279c-286 0-388-117-388-391v-228c1-158-59-222-218-220v-182c158 3 218-60 218-218v-230c0-273 102-391 388-391v151c-169-1-222 74-222 243v286c0 117-37 206-205 240v20c168 35 205 125 205 242v284c0 169 52 245 222 245v149" id="aZ"/><use transform="matrix(0.010850694444444444,0,0,0.010850694444444444,0,0)" xlink:href="#aZ" id="H"/><g id="J"><use transform="matrix(0.010850694444444444,0,0,0.010850694444444444,0,0)" xlink:href="#aA"/><use transform="matrix(0.010850694444444444,0,0,0.010850694444444444,19.466145833333332,0)" xlink:href="#ak"/><use transform="matrix(0.010850694444444444,0,0,0.010850694444444444,32.389322916666664,0)" xlink:href="#al"/><use transform="matrix(0.010850694444444444,0,0,0.010850694444444444,50.17361111111112,0)" xlink:href="#am"/><use transform="matrix(0.010850694444444444,0,0,0.010850694444444444,63.12934027777778,0)" xlink:href="#an"/><use transform="matrix(0.010850694444444444,0,0,0.010850694444444444,70.10633680555556,0)" xlink:href="#aY"/><use transform="matrix(0.010850694444444444,0,0,0.010850694444444444,76.50824652777779,0)" xlink:href="#aC"/><use transform="matrix(0.010850694444444444,0,0,0.010850694444444444,85.05859375,0)" xlink:href="#al"/><use transform="matrix(0.010850694444444444,0,0,0.010850694444444444,102.84288194444444,0)" xlink:href="#av"/><use transform="matrix(0.010850694444444444,0,0,0.010850694444444444,116.44965277777777,0)" xlink:href="#aP"/><use transform="matrix(0.010850694444444444,0,0,0.010850694444444444,130.76171875,0)" xlink:href="#aQ"/><use transform="matrix(0.010850694444444444,0,0,0.010850694444444444,143.45703125,0)" xlink:href="#aM"/><use transform="matrix(0.010850694444444444,0,0,0.010850694444444444,156.59722222222223,0)" xlink:href="#aq"/><use transform="matrix(0.010850694444444444,0,0,0.010850694444444444,163.8671875,0)" xlink:href="#aw"/><use transform="matrix(0.010850694444444444,0,0,0.010850694444444444,171.97265625,0)" xlink:href="#ax"/><use transform="matrix(0.010850694444444444,0,0,0.010850694444444444,180.078125,0)" xlink:href="#aW"/></g><g id="K"><use transform="matrix(0.010850694444444444,0,0,0.010850694444444444,0,0)" xlink:href="#aR"/><use transform="matrix(0.010850694444444444,0,0,0.010850694444444444,13.628472222222221,0)" xlink:href="#aM"/><use transform="matrix(0.010850694444444444,0,0,0.010850694444444444,26.768663194444443,0)" xlink:href="#az"/><use transform="matrix(0.010850694444444444,0,0,0.010850694444444444,32.150607638888886,0)" xlink:href="#aY"/><use transform="matrix(0.010850694444444444,0,0,0.010850694444444444,38.55251736111111,0)" xlink:href="#aM"/><use transform="matrix(0.010850694444444444,0,0,0.010850694444444444,51.69270833333333,0)" xlink:href="#ay"/><use transform="matrix(0.010850694444444444,0,0,0.010850694444444444,65.29947916666666,0)" xlink:href="#av"/><use transform="matrix(0.010850694444444444,0,0,0.010850694444444444,78.90624999999999,0)" xlink:href="#at"/><use transform="matrix(0.010850694444444444,0,0,0.010850694444444444,91.38454861111111,0)" xlink:href="#aq"/><use transform="matrix(0.010850694444444444,0,0,0.010850694444444444,98.43749999999997,0)" xlink:href="#am"/><use transform="matrix(0.010850694444444444,0,0,0.010850694444444444,111.39322916666666,0)" xlink:href="#aw"/><use transform="matrix(0.010850694444444444,0,0,0.010850694444444444,119.49869791666666,0)" xlink:href="#az"/><use transform="matrix(0.010850694444444444,0,0,0.010850694444444444,124.8806423611111,0)" xlink:href="#aE"/></g><g id="L"><use transform="matrix(0.010850694444444444,0,0,0.010850694444444444,0,0)" xlink:href="#aS"/><use transform="matrix(0.010850694444444444,0,0,0.010850694444444444,5.381944444444445,0)" xlink:href="#ax"/><use transform="matrix(0.010850694444444444,0,0,0.010850694444444444,13.487413194444445,0)" xlink:href="#aW"/></g><g id="M"><use transform="matrix(0.010850694444444444,0,0,0.010850694444444444,0,0)" xlink:href="#an"/><use transform="matrix(0.010850694444444444,0,0,0.010850694444444444,7.996961805555555,0)" xlink:href="#am"/><use transform="matrix(0.010850694444444444,0,0,0.010850694444444444,20.95269097222222,0)" xlink:href="#aq"/><use transform="matrix(0.010850694444444444,0,0,0.010850694444444444,28.22265625,0)" xlink:href="#aM"/><use transform="matrix(0.010850694444444444,0,0,0.010850694444444444,41.36284722222222,0)" xlink:href="#an"/><use transform="matrix(0.010850694444444444,0,0,0.010850694444444444,50.07595486111111,0)" xlink:href="#ap"/><use transform="matrix(0.010850694444444444,0,0,0.010850694444444444,63.205295138888886,0)" xlink:href="#aY"/><use transform="matrix(0.010850694444444444,0,0,0.010850694444444444,69.60720486111111,0)" xlink:href="#aq"/><use transform="matrix(0.010850694444444444,0,0,0.010850694444444444,76.87717013888889,0)" xlink:href="#aN"/><use transform="matrix(0.010850694444444444,0,0,0.010850694444444444,90.01736111111111,0)" xlink:href="#az"/><use transform="matrix(0.010850694444444444,0,0,0.010850694444444444,95.39930555555556,0)" xlink:href="#as"/><use transform="matrix(0.010850694444444444,0,0,0.010850694444444444,107.12890625,0)" xlink:href="#aW"/><path fill="#8080ff" d="M-1.1 4.54h116.05v1.52H-1.1z"/></g><path d="M123 279V130c170 0 222-76 222-245v-284c0-116 37-207 204-242v-20c-167-34-204-123-204-240v-286c0-168-52-243-222-243v-151c285 0 387 118 387 391v230c-1 158 57 219 219 219v180c-164 1-219 64-219 221v228c0 274-102 391-387 391" id="ba"/><use transform="matrix(0.010850694444444444,0,0,0.010850694444444444,0,0)" xlink:href="#ba" id="N"/><g id="O"><use transform="matrix(0.010850694444444444,0,0,0.010850694444444444,0,0)" xlink:href="#am"/><use transform="matrix(0.010850694444444444,0,0,0.010850694444444444,12.955729166666666,0)" xlink:href="#ar"/><use transform="matrix(0.010850694444444444,0,0,0.010850694444444444,18.33767361111111,0)" xlink:href="#as"/><use transform="matrix(0.010850694444444444,0,0,0.010850694444444444,30.06727430555556,0)" xlink:href="#am"/></g><path d="M180 0v-1490h510c348 0 508 194 508 460 0 198-88 351-276 417L1256 0h-220L726-579c-117 2-238 0-356 1V0H180zm190-747h312c235 0 327-108 327-283 0-177-92-293-329-293H370v576" id="bb"/><g id="P"><use transform="matrix(0.010850694444444444,0,0,0.010850694444444444,0,0)" xlink:href="#aA"/><use transform="matrix(0.010850694444444444,0,0,0.010850694444444444,19.466145833333332,0)" xlink:href="#ak"/><use transform="matrix(0.010850694444444444,0,0,0.010850694444444444,32.389322916666664,0)" xlink:href="#al"/><use transform="matrix(0.010850694444444444,0,0,0.010850694444444444,50.17361111111112,0)" xlink:href="#am"/><use transform="matrix(0.010850694444444444,0,0,0.010850694444444444,63.12934027777778,0)" xlink:href="#an"/><use transform="matrix(0.010850694444444444,0,0,0.010850694444444444,70.10633680555556,0)" xlink:href="#aY"/><use transform="matrix(0.010850694444444444,0,0,0.010850694444444444,76.50824652777779,0)" xlink:href="#aq"/><use transform="matrix(0.010850694444444444,0,0,0.010850694444444444,83.77821180555556,0)" xlink:href="#aM"/><use transform="matrix(0.010850694444444444,0,0,0.010850694444444444,96.91840277777777,0)" xlink:href="#an"/><use transform="matrix(0.010850694444444444,0,0,0.010850694444444444,105.63151041666666,0)" xlink:href="#ap"/><use transform="matrix(0.010850694444444444,0,0,0.010850694444444444,118.76085069444444,0)" xlink:href="#bb"/><use transform="matrix(0.010850694444444444,0,0,0.010850694444444444,133.06206597222223,0)" xlink:href="#az"/><use transform="matrix(0.010850694444444444,0,0,0.010850694444444444,138.44401041666669,0)" xlink:href="#aR"/><use transform="matrix(0.010850694444444444,0,0,0.010850694444444444,152.0724826388889,0)" xlink:href="#aN"/><use transform="matrix(0.010850694444444444,0,0,0.010850694444444444,165.21267361111114,0)" xlink:href="#aq"/><use transform="matrix(0.010850694444444444,0,0,0.010850694444444444,172.4826388888889,0)" xlink:href="#aw"/><use transform="matrix(0.010850694444444444,0,0,0.010850694444444444,180.5881076388889,0)" xlink:href="#ax"/><use transform="matrix(0.010850694444444444,0,0,0.010850694444444444,188.6935763888889,0)" xlink:href="#aW"/></g><g id="Q"><use transform="matrix(0.010850694444444444,0,0,0.010850694444444444,0,0)" xlink:href="#an"/><use transform="matrix(0.010850694444444444,0,0,0.010850694444444444,7.996961805555555,0)" xlink:href="#am"/><use transform="matrix(0.010850694444444444,0,0,0.010850694444444444,20.95269097222222,0)" xlink:href="#aq"/><use transform="matrix(0.010850694444444444,0,0,0.010850694444444444,28.22265625,0)" xlink:href="#aM"/><use transform="matrix(0.010850694444444444,0,0,0.010850694444444444,41.36284722222222,0)" xlink:href="#an"/><use transform="matrix(0.010850694444444444,0,0,0.010850694444444444,50.07595486111111,0)" xlink:href="#ap"/></g><g id="R"><use transform="matrix(0.010850694444444444,0,0,0.010850694444444444,0,0)" xlink:href="#ap"/><use transform="matrix(0.010850694444444444,0,0,0.010850694444444444,13.129340277777777,0)" xlink:href="#am"/><use transform="matrix(0.010850694444444444,0,0,0.010850694444444444,25.68359375,0)" xlink:href="#al"/></g><g id="S"><use transform="matrix(0.010850694444444444,0,0,0.010850694444444444,0,0)" xlink:href="#aK"/><use transform="matrix(0.010850694444444444,0,0,0.010850694444444444,13.35720486111111,0)" xlink:href="#at"/><use transform="matrix(0.010850694444444444,0,0,0.010850694444444444,25.83550347222222,0)" xlink:href="#as"/><use transform="matrix(0.010850694444444444,0,0,0.010850694444444444,37.565104166666664,0)" xlink:href="#aq"/><use transform="matrix(0.010850694444444444,0,0,0.010850694444444444,44.83506944444444,0)" xlink:href="#aI"/><use transform="matrix(0.010850694444444444,0,0,0.010850694444444444,59.09288194444444,0)" xlink:href="#ak"/><use transform="matrix(0.010850694444444444,0,0,0.010850694444444444,72.41753472222221,0)" xlink:href="#aM"/><use transform="matrix(0.010850694444444444,0,0,0.010850694444444444,85.55772569444443,0)" xlink:href="#aq"/><use transform="matrix(0.010850694444444444,0,0,0.010850694444444444,92.8276909722222,0)" xlink:href="#aN"/><use transform="matrix(0.010850694444444444,0,0,0.010850694444444444,105.96788194444441,0)" xlink:href="#aw"/><use transform="matrix(0.010850694444444444,0,0,0.010850694444444444,114.07335069444441,0)" xlink:href="#ax"/><use transform="matrix(0.010850694444444444,0,0,0.010850694444444444,122.17881944444441,0)" xlink:href="#aW"/></g><use transform="matrix(0.010850694444444444,0,0,0.010850694444444444,0,0)" xlink:href="#ba" id="T"/><path d="M180 0v-1490h190v1322h690V0H180" id="bc"/><g id="U"><use transform="matrix(0.010850694444444444,0,0,0.010850694444444444,0,0)" xlink:href="#aA"/><use transform="matrix(0.010850694444444444,0,0,0.010850694444444444,19.466145833333332,0)" xlink:href="#ak"/><use transform="matrix(0.010850694444444444,0,0,0.010850694444444444,32.389322916666664,0)" xlink:href="#al"/><use transform="matrix(0.010850694444444444,0,0,0.010850694444444444,50.17361111111112,0)" xlink:href="#am"/><use transform="matrix(0.010850694444444444,0,0,0.010850694444444444,63.12934027777778,0)" xlink:href="#an"/><use transform="matrix(0.010850694444444444,0,0,0.010850694444444444,70.10633680555556,0)" xlink:href="#aY"/><use transform="matrix(0.010850694444444444,0,0,0.010850694444444444,76.50824652777779,0)" xlink:href="#aq"/><use transform="matrix(0.010850694444444444,0,0,0.010850694444444444,83.77821180555556,0)" xlink:href="#aM"/><use transform="matrix(0.010850694444444444,0,0,0.010850694444444444,96.91840277777777,0)" xlink:href="#an"/><use transform="matrix(0.010850694444444444,0,0,0.010850694444444444,105.63151041666666,0)" xlink:href="#ap"/><use transform="matrix(0.010850694444444444,0,0,0.010850694444444444,118.76085069444444,0)" xlink:href="#bc"/><use transform="matrix(0.010850694444444444,0,0,0.010850694444444444,131.32595486111111,0)" xlink:href="#am"/><use transform="matrix(0.010850694444444444,0,0,0.010850694444444444,144.28168402777777,0)" xlink:href="#aC"/><use transform="matrix(0.010850694444444444,0,0,0.010850694444444444,151.74696180555554,0)" xlink:href="#aq"/><use transform="matrix(0.010850694444444444,0,0,0.010850694444444444,159.01692708333331,0)" xlink:href="#aw"/><use transform="matrix(0.010850694444444444,0,0,0.010850694444444444,167.12239583333331,0)" xlink:href="#ax"/><use transform="matrix(0.010850694444444444,0,0,0.010850694444444444,175.22786458333331,0)" xlink:href="#aW"/></g><g id="V"><use transform="matrix(0.010850694444444444,0,0,0.010850694444444444,0,0)" xlink:href="#aL"/><use transform="matrix(0.010850694444444444,0,0,0.010850694444444444,20.768229166666668,0)" xlink:href="#am"/><use transform="matrix(0.010850694444444444,0,0,0.010850694444444444,33.723958333333336,0)" xlink:href="#as"/><use transform="matrix(0.010850694444444444,0,0,0.010850694444444444,45.45355902777778,0)" xlink:href="#aq"/><use transform="matrix(0.010850694444444444,0,0,0.010850694444444444,52.72352430555556,0)" xlink:href="#aI"/><use transform="matrix(0.010850694444444444,0,0,0.010850694444444444,66.98133680555556,0)" xlink:href="#ak"/><use transform="matrix(0.010850694444444444,0,0,0.010850694444444444,80.30598958333333,0)" xlink:href="#aM"/><use transform="matrix(0.010850694444444444,0,0,0.010850694444444444,93.44618055555556,0)" xlink:href="#aq"/><use transform="matrix(0.010850694444444444,0,0,0.010850694444444444,100.71614583333331,0)" xlink:href="#aN"/><use transform="matrix(0.010850694444444444,0,0,0.010850694444444444,113.85633680555556,0)" xlink:href="#aw"/><use transform="matrix(0.010850694444444444,0,0,0.010850694444444444,121.96180555555556,0)" xlink:href="#ax"/><use transform="matrix(0.010850694444444444,0,0,0.010850694444444444,130.06727430555554,0)" xlink:href="#aW"/></g><g id="W"><use transform="matrix(0.010850694444444444,0,0,0.010850694444444444,0,0)" xlink:href="#aA"/><use transform="matrix(0.010850694444444444,0,0,0.010850694444444444,19.466145833333332,0)" xlink:href="#ak"/><use transform="matrix(0.010850694444444444,0,0,0.010850694444444444,32.389322916666664,0)" xlink:href="#al"/><use transform="matrix(0.010850694444444444,0,0,0.010850694444444444,50.17361111111112,0)" xlink:href="#am"/><use transform="matrix(0.010850694444444444,0,0,0.010850694444444444,63.12934027777778,0)" xlink:href="#an"/><use transform="matrix(0.010850694444444444,0,0,0.010850694444444444,70.10633680555556,0)" xlink:href="#aY"/><use transform="matrix(0.010850694444444444,0,0,0.010850694444444444,76.50824652777779,0)" xlink:href="#aq"/><use transform="matrix(0.010850694444444444,0,0,0.010850694444444444,83.77821180555556,0)" xlink:href="#aM"/><use transform="matrix(0.010850694444444444,0,0,0.010850694444444444,96.91840277777777,0)" xlink:href="#an"/><use transform="matrix(0.010850694444444444,0,0,0.010850694444444444,105.63151041666666,0)" xlink:href="#ap"/><use transform="matrix(0.010850694444444444,0,0,0.010850694444444444,118.76085069444444,0)" xlink:href="#aB"/><use transform="matrix(0.010850694444444444,0,0,0.010850694444444444,135.75303819444446,0)" xlink:href="#aC"/><use transform="matrix(0.010850694444444444,0,0,0.010850694444444444,143.1098090277778,0)" xlink:href="#aC"/><use transform="matrix(0.010850694444444444,0,0,0.010850694444444444,151.33463541666669,0)" xlink:href="#aw"/><use transform="matrix(0.010850694444444444,0,0,0.010850694444444444,159.44010416666669,0)" xlink:href="#ax"/><use transform="matrix(0.010850694444444444,0,0,0.010850694444444444,167.54557291666669,0)" xlink:href="#aW"/></g><g id="X"><use transform="matrix(0.010850694444444444,0,0,0.010850694444444444,0,0)" xlink:href="#aB"/><use transform="matrix(0.010850694444444444,0,0,0.010850694444444444,16.9921875,0)" xlink:href="#aC"/><use transform="matrix(0.010850694444444444,0,0,0.010850694444444444,24.348958333333332,0)" xlink:href="#aC"/><use transform="matrix(0.010850694444444444,0,0,0.010850694444444444,32.57378472222222,0)" xlink:href="#aw"/><use transform="matrix(0.010850694444444444,0,0,0.010850694444444444,40.67925347222222,0)" xlink:href="#ax"/><use transform="matrix(0.010850694444444444,0,0,0.010850694444444444,48.78472222222222,0)" xlink:href="#aW"/></g><g id="Y"><use transform="matrix(0.010850694444444444,0,0,0.010850694444444444,0,0)" xlink:href="#as"/><use transform="matrix(0.010850694444444444,0,0,0.010850694444444444,11.729600694444445,0)" xlink:href="#aq"/><use transform="matrix(0.010850694444444444,0,0,0.010850694444444444,19.108072916666668,0)" xlink:href="#at"/><use transform="matrix(0.010850694444444444,0,0,0.010850694444444444,31.586371527777775,0)" xlink:href="#aq"/><use transform="matrix(0.010850694444444444,0,0,0.010850694444444444,38.639322916666664,0)" xlink:href="#am"/></g><g id="Z"><use transform="matrix(0.010850694444444444,0,0,0.010850694444444444,0,0)" xlink:href="#aB"/><use transform="matrix(0.010850694444444444,0,0,0.010850694444444444,16.9921875,0)" xlink:href="#aC"/><use transform="matrix(0.010850694444444444,0,0,0.010850694444444444,24.348958333333332,0)" xlink:href="#aC"/></g><path d="M98-1322v-168h1126v168H757V0H567v-1322H98" id="bd"/><g id="aa"><use transform="matrix(0.010850694444444444,0,0,0.010850694444444444,0,0)" xlink:href="#bd"/><use transform="matrix(0.010850694444444444,0,0,0.010850694444444444,14.344618055555555,0)" xlink:href="#az"/><use transform="matrix(0.010850694444444444,0,0,0.010850694444444444,19.7265625,0)" xlink:href="#aA"/><use transform="matrix(0.010850694444444444,0,0,0.010850694444444444,39.19270833333333,0)" xlink:href="#am"/><use transform="matrix(0.010850694444444444,0,0,0.010850694444444444,52.148437499999986,0)" xlink:href="#an"/></g><g id="ab"><use transform="matrix(0.010850694444444444,0,0,0.010850694444444444,0,0)" xlink:href="#as"/><use transform="matrix(0.010850694444444444,0,0,0.010850694444444444,11.729600694444445,0)" xlink:href="#aq"/><use transform="matrix(0.010850694444444444,0,0,0.010850694444444444,19.108072916666668,0)" xlink:href="#at"/><use transform="matrix(0.010850694444444444,0,0,0.010850694444444444,31.586371527777775,0)" xlink:href="#an"/><use transform="matrix(0.010850694444444444,0,0,0.010850694444444444,40.299479166666664,0)" xlink:href="#aq"/><use transform="matrix(0.010850694444444444,0,0,0.010850694444444444,47.56944444444444,0)" xlink:href="#aw"/><use transform="matrix(0.010850694444444444,0,0,0.010850694444444444,55.67491319444444,0)" xlink:href="#ax"/></g><g id="ac"><use transform="matrix(0.010850694444444444,0,0,0.010850694444444444,0,0)" xlink:href="#as"/><use transform="matrix(0.010850694444444444,0,0,0.010850694444444444,11.729600694444445,0)" xlink:href="#aq"/><use transform="matrix(0.010850694444444444,0,0,0.010850694444444444,18.782552083333332,0)" xlink:href="#ak"/><use transform="matrix(0.010850694444444444,0,0,0.010850694444444444,32.10720486111111,0)" xlink:href="#ay"/><use transform="matrix(0.010850694444444444,0,0,0.010850694444444444,45.71397569444444,0)" xlink:href="#aw"/><use transform="matrix(0.010850694444444444,0,0,0.010850694444444444,53.81944444444444,0)" xlink:href="#ax"/></g><path d="M545 20c-263 0-445-160-445-446v-80h190v80c0 182 102 279 255 279 152 0 254-97 254-279v-1064h190v1064c0 286-181 446-444 446" id="be"/><path d="M52 0l541-1490h220L1361 0h-200l-149-416H398L254 0H52zm404-582h497c-103-290-145-390-251-756-108 377-145 460-246 756" id="bf"/><g id="ad"><use transform="matrix(0.010850694444444444,0,0,0.010850694444444444,0,0)" xlink:href="#aD"/><use transform="matrix(0.010850694444444444,0,0,0.010850694444444444,14.702690972222221,0)" xlink:href="#aD"/><use transform="matrix(0.010850694444444444,0,0,0.010850694444444444,29.405381944444443,0)" xlink:href="#be"/><use transform="matrix(0.010850694444444444,0,0,0.010850694444444444,42.08984375,0)" xlink:href="#at"/><use transform="matrix(0.010850694444444444,0,0,0.010850694444444444,54.24262152777778,0)" xlink:href="#aG"/><use transform="matrix(0.010850694444444444,0,0,0.010850694444444444,66.62326388888889,0)" xlink:href="#at"/><use transform="matrix(0.010850694444444444,0,0,0.010850694444444444,79.1015625,0)" xlink:href="#bf"/><use transform="matrix(0.010850694444444444,0,0,0.010850694444444444,94.43359375,0)" xlink:href="#au"/><use transform="matrix(0.010850694444444444,0,0,0.010850694444444444,108.62630208333333,0)" xlink:href="#aV"/><use transform="matrix(0.010850694444444444,0,0,0.010850694444444444,114.59418402777777,0)" xlink:href="#aH"/><use transform="matrix(0.010850694444444444,0,0,0.010850694444444444,129.296875,0)" xlink:href="#aH"/></g><path d="M180 0v-1490h528c311 0 458 177 458 395 0 191-114 278-244 313v14c139 9 302 137 302 371 0 225-148 397-499 397H180zm190-168h350c232 0 321-102 321-231 0-149-120-277-311-277H370v508zm0-668h328c160 0 286-101 286-255 0-129-87-231-280-231H370v486" id="bg"/><g id="ae"><use transform="matrix(0.010850694444444444,0,0,0.010850694444444444,0,0)" xlink:href="#as"/><use transform="matrix(0.010850694444444444,0,0,0.010850694444444444,11.729600694444445,0)" xlink:href="#aq"/><use transform="matrix(0.010850694444444444,0,0,0.010850694444444444,19.108072916666668,0)" xlink:href="#at"/><use transform="matrix(0.010850694444444444,0,0,0.010850694444444444,31.586371527777775,0)" xlink:href="#an"/><use transform="matrix(0.010850694444444444,0,0,0.010850694444444444,40.299479166666664,0)" xlink:href="#aq"/><use transform="matrix(0.010850694444444444,0,0,0.010850694444444444,47.56944444444444,0)" xlink:href="#bg"/><use transform="matrix(0.010850694444444444,0,0,0.010850694444444444,62.109375,0)" xlink:href="#aM"/><use transform="matrix(0.010850694444444444,0,0,0.010850694444444444,75.24956597222223,0)" xlink:href="#aq"/><use transform="matrix(0.010850694444444444,0,0,0.010850694444444444,81.97699652777777,0)" xlink:href="#aq"/><use transform="matrix(0.010850694444444444,0,0,0.010850694444444444,89.02994791666666,0)" xlink:href="#ak"/><use transform="matrix(0.010850694444444444,0,0,0.010850694444444444,102.35460069444441,0)" xlink:href="#ap"/></g><g id="af"><use transform="matrix(0.010850694444444444,0,0,0.010850694444444444,0,0)" xlink:href="#as"/><use transform="matrix(0.010850694444444444,0,0,0.010850694444444444,11.729600694444445,0)" xlink:href="#aq"/><use transform="matrix(0.010850694444444444,0,0,0.010850694444444444,18.782552083333332,0)" xlink:href="#ak"/><use transform="matrix(0.010850694444444444,0,0,0.010850694444444444,32.10720486111111,0)" xlink:href="#ay"/><use transform="matrix(0.010850694444444444,0,0,0.010850694444444444,45.71397569444444,0)" xlink:href="#bg"/><use transform="matrix(0.010850694444444444,0,0,0.010850694444444444,60.25390625,0)" xlink:href="#aM"/><use transform="matrix(0.010850694444444444,0,0,0.010850694444444444,73.39409722222223,0)" xlink:href="#aq"/><use transform="matrix(0.010850694444444444,0,0,0.010850694444444444,80.12152777777777,0)" xlink:href="#aq"/><use transform="matrix(0.010850694444444444,0,0,0.010850694444444444,87.17447916666666,0)" xlink:href="#ak"/><use transform="matrix(0.010850694444444444,0,0,0.010850694444444444,100.49913194444441,0)" xlink:href="#ap"/></g><g id="ag"><use transform="matrix(0.010850694444444444,0,0,0.010850694444444444,0,0)" xlink:href="#aD"/><use transform="matrix(0.010850694444444444,0,0,0.010850694444444444,14.702690972222221,0)" xlink:href="#aD"/><use transform="matrix(0.010850694444444444,0,0,0.010850694444444444,29.405381944444443,0)" xlink:href="#be"/><use transform="matrix(0.010850694444444444,0,0,0.010850694444444444,42.08984375,0)" xlink:href="#at"/><use transform="matrix(0.010850694444444444,0,0,0.010850694444444444,54.24262152777778,0)" xlink:href="#aG"/><use transform="matrix(0.010850694444444444,0,0,0.010850694444444444,66.62326388888889,0)" xlink:href="#at"/><use transform="matrix(0.010850694444444444,0,0,0.010850694444444444,79.1015625,0)" xlink:href="#bf"/><use transform="matrix(0.010850694444444444,0,0,0.010850694444444444,94.43359375,0)" xlink:href="#au"/><use transform="matrix(0.010850694444444444,0,0,0.010850694444444444,108.62630208333333,0)" xlink:href="#aV"/><use transform="matrix(0.010850694444444444,0,0,0.010850694444444444,114.59418402777777,0)" xlink:href="#aH"/><use transform="matrix(0.010850694444444444,0,0,0.010850694444444444,129.296875,0)" xlink:href="#aH"/></g><g id="ah"><use transform="matrix(0.010850694444444444,0,0,0.010850694444444444,0,0)" xlink:href="#aB"/><use transform="matrix(0.010850694444444444,0,0,0.010850694444444444,16.9921875,0)" xlink:href="#aF"/><use transform="matrix(0.010850694444444444,0,0,0.010850694444444444,30.598958333333332,0)" xlink:href="#am"/><use transform="matrix(0.010850694444444444,0,0,0.010850694444444444,43.5546875,0)" xlink:href="#an"/><use transform="matrix(0.010850694444444444,0,0,0.010850694444444444,52.267795138888886,0)" xlink:href="#aG"/><use transform="matrix(0.010850694444444444,0,0,0.010850694444444444,64.32291666666666,0)" xlink:href="#am"/><use transform="matrix(0.010850694444444444,0,0,0.010850694444444444,77.27864583333333,0)" xlink:href="#an"/></g><g id="ai"><use transform="matrix(0.010850694444444444,0,0,0.010850694444444444,0,0)" xlink:href="#aM"/><use transform="matrix(0.010850694444444444,0,0,0.010850694444444444,13.140190972222221,0)" xlink:href="#ay"/><use transform="matrix(0.010850694444444444,0,0,0.010850694444444444,26.746961805555554,0)" xlink:href="#av"/><use transform="matrix(0.010850694444444444,0,0,0.010850694444444444,40.353732638888886,0)" xlink:href="#at"/><use transform="matrix(0.010850694444444444,0,0,0.010850694444444444,52.83203125,0)" xlink:href="#aq"/><use transform="matrix(0.010850694444444444,0,0,0.010850694444444444,59.8849826388889,0)" xlink:href="#am"/><use transform="matrix(0.010850694444444444,0,0,0.010850694444444444,72.84071180555556,0)" xlink:href="#aw"/><use transform="matrix(0.010850694444444444,0,0,0.010850694444444444,80.94618055555556,0)" xlink:href="#ax"/></g></defs></g></svg>